<?xml version="1.0" encoding="utf-8"?>
<!-- Generator: Adobe Illustrator 21.1.0, SVG Export Plug-In . SVG Version: 6.00 Build 0)  -->
<svg version="1.1" id="Layer_1" xmlns="http://www.w3.org/2000/svg" xmlns:xlink="http://www.w3.org/1999/xlink" x="0px" y="0px"
	 viewBox="0 0 461 216" style="enable-background:new 0 0 461 216;" xml:space="preserve">
<style type="text/css">
	.st0{fill:#FE5B47;}
	.st1{fill:#8BD5D1;}
	.st2{enable-background:new    ;}
	.st3{filter:url(#filter-2);}
	.st4{filter:url(#filter-4);}
</style>
<filter  filterUnits="objectBoundingBox" height="112.8%" id="filter-4" width="111.2%" x="-8.0%" y="-3.2%">
	<feOffset  dx="-6" dy="8" in="SourceAlpha" result="shadowOffsetOuter1"></feOffset>
	<feColorMatrix  in="shadowOffsetOuter1" type="matrix" values="0 0 0 0 0   0 0 0 0 0   0 0 0 0 0  0 0 0 0.15 0"></feColorMatrix>
</filter>
<filter  filterUnits="objectBoundingBox" height="122.2%" id="filter-2" width="120.1%" x="-14.4%" y="-5.6%">
	<feOffset  dx="-6" dy="8" in="SourceAlpha" result="shadowOffsetOuter1"></feOffset>
	<feColorMatrix  in="shadowOffsetOuter1" type="matrix" values="0 0 0 0 0   0 0 0 0 0   0 0 0 0 0  0 0 0 0.15 0"></feColorMatrix>
</filter>
<title>Group 58 Copy</title>
<desc>Created with Sketch.</desc>
<g id="Page-1">
	<g id="v" transform="translate(-39.000000, 0.000000)">
		<g id="Group-58-Copy" transform="translate(39.000000, -45.000000)">
			<g id="Group-27-Copy-2" transform="translate(0.000000, 137.536716)">
				<g id="Group-5-Copy-3" transform="translate(0.013134, 18.284375)">
					<g id="Group-9">
						<path id="Path" d="M32.6,68.6c-6,0-11.5-1.3-16.3-3.8c-4.8-2.5-8.6-6.1-11.4-10.6s-4.1-9.7-4.1-15.5s1.4-10.9,4.1-15.5
							s6.5-8.1,11.4-10.6s10.3-3.8,16.3-3.8c5.5,0,10.5,1,14.9,2.9s7.9,4.8,10.8,8.5L46.1,31.2c-3.5-4.5-7.7-6.7-12.5-6.7
							c-4,0-7.3,1.3-9.7,3.9s-3.7,6.1-3.7,10.4s1.2,7.8,3.7,10.4c2.4,2.6,5.7,3.9,9.7,3.9c4.8,0,8.9-2.2,12.5-6.7l12.2,10.9
							c-2.8,3.7-6.4,6.5-10.8,8.5C43.1,67.6,38.2,68.6,32.6,68.6z"/>
						<path id="Path_1_" d="M83.8,27.5c3.3-3.8,8.1-5.6,14.4-5.6v16.3c-1.5-0.2-2.8-0.3-4.1-0.3c-6.3,0-9.5,3.2-9.5,9.6v19.8H66.2
							V22.7h17.5V27.5z"/>
						<path id="Path_2_" d="M153.5,45c0,0.3-0.1,1.7-0.2,4.3h-31c0.7,1.7,1.7,3,3.3,3.9s3.4,1.3,5.7,1.3c2,0,3.6-0.2,4.9-0.7
							c1.3-0.5,2.8-1.3,4.4-2.5l9.6,9.7c-4.4,4.8-10.9,7.2-19.5,7.2c-5.4,0-10.1-1-14.2-3c-4.1-2-7.2-4.7-9.5-8.3
							c-2.2-3.5-3.3-7.5-3.3-11.9c0-4.5,1.1-8.4,3.3-12c2.2-3.5,5.2-6.2,9.1-8.2s8.1-2.9,12.9-2.9c4.5,0,8.6,0.9,12.4,2.7
							c3.7,1.8,6.7,4.4,8.9,7.9C152.4,36,153.5,40.1,153.5,45z"/>
						<path id="Path_3_" class="st0" d="M129.1,34.4c-1.9,0-3.5,0.5-4.7,1.6s-2.1,2.5-2.4,4.4h14.4c-0.4-1.8-1.2-3.3-2.4-4.4
							C132.6,35,131,34.4,129.1,34.4z"/>
						<path id="Path_4_" d="M181.1,21.9c7.8,0,13.8,1.8,18,5.3c4.1,3.5,6.2,8.9,6.2,16.2v24h-17.1v-5.9c-2.1,4.5-6.3,6.7-12.6,6.7
							c-3.5,0-6.5-0.6-9-1.8c-2.5-1.2-4.4-2.9-5.6-5c-1.3-2.1-1.9-4.4-1.9-7.1c0-4.4,1.7-7.8,5.1-10s8.5-3.4,15.3-3.4h7.4
							c-0.6-3.5-3.4-5.2-8.4-5.2c-2,0-4.1,0.3-6.1,0.9c-2.1,0.6-3.8,1.5-5.3,2.6L161,26.9c2.6-1.6,5.6-2.8,9.3-3.7
							C173.9,22.3,177.5,21.9,181.1,21.9z"/>
						<path id="Path_5_" class="st1" d="M181,57c1.3,0,2.5-0.4,3.5-1.1s1.8-1.8,2.3-3.2v-3.1h-4.6c-3.8,0-5.6,1.3-5.6,3.8
							c0,1,0.4,1.9,1.2,2.6C178.6,56.7,179.6,57,181,57z"/>
						<path id="Path_6_" d="M249.1,65.8c-2.8,1.6-6.6,2.4-11.3,2.4c-6.3,0-11.1-1.5-14.4-4.5c-3.4-3-5.1-7.5-5.1-13.6V38.6h-6.1
							V25.1h6.1V12.6h18.4v12.5h9.1v13.5h-9.1v11.3c0,1.4,0.4,2.4,1.1,3.2c0.7,0.8,1.6,1.1,2.8,1.1c1.6,0,3-0.4,4.2-1.2L249.1,65.8z
							"/>
						<polygon id="Path_7_" points="256.8,22.7 275.2,22.7 275.2,67.3 256.8,67.3 						"/>
						<polygon id="Path_8_" points="336.1,22.7 318.1,67.3 299,67.3 281.1,22.7 300,22.7 309,46.6 318.6,22.7 						"/>
						<polygon id="Path_9_" points="341.9,22.7 360.4,22.7 360.4,67.3 341.9,67.3 						"/>
						<path id="Path_10_" class="st1" d="M351.1,19.1c-3.3,0-6-0.9-8-2.7s-3.1-4-3.1-6.7s1-5,3.1-6.7s4.7-2.7,8-2.7
							c3.4,0,6.1,0.8,8.1,2.5s3,3.9,3,6.5c0,2.8-1,5.2-3,7S354.5,19.1,351.1,19.1z"/>
						<path id="Path_11_" d="M404.4,65.8c-2.8,1.6-6.6,2.4-11.3,2.4c-6.3,0-11.1-1.5-14.4-4.5c-3.4-3-5.1-7.5-5.1-13.6V38.6h-6.1
							V25.1h6.1V12.6H392v12.5h9.1v13.5H392v11.3c0,1.4,0.4,2.4,1.1,3.2c0.7,0.8,1.6,1.1,2.8,1.1c1.6,0,3-0.4,4.2-1.2L404.4,65.8z"
							/>
						<path id="Path_12_" d="M460.9,22.7l-18.4,45.5c-2.3,5.8-5.2,9.9-8.7,12.2c-3.5,2.3-7.8,3.5-12.8,3.5c-2.5,0-5-0.4-7.5-1.1
							c-2.5-0.7-4.5-1.7-6-2.9l6.1-12.6c0.9,0.7,2,1.3,3.1,1.7s2.3,0.7,3.4,0.7c2,0,3.5-0.6,4.6-1.8l-18.8-45.2h18.9l9.2,23.9
							l9.4-23.9H460.9z"/>
						<g class="st2">
							<path class="st1" d="M35.6,98.9h-9.8l-1.9,4.5h-5l9.4-21h4.8l9.4,21h-5.1L35.6,98.9z M34,95.2l-3.3-8l-3.3,8H34z"/>
							<path class="st1" d="M57.5,86.3h-6.7v-4h18.3v4h-6.7v17h-4.9V86.3z"/>
							<path class="st1" d="M78.1,87.6c1-0.4,2-0.6,3.3-0.6v4.3c-0.5,0-0.9-0.1-1-0.1c-1.3,0-2.4,0.4-3.2,1.1s-1.1,1.9-1.1,3.4v7.6
								h-4.7V87.2h4.5v2.1C76.4,88.6,77.2,88,78.1,87.6z"/>
							<path class="st1" d="M84.6,84.2c-0.5-0.5-0.8-1.1-0.8-1.9c0-0.7,0.3-1.4,0.8-1.9c0.5-0.5,1.2-0.8,2.1-0.8s1.6,0.2,2.1,0.7
								c0.5,0.5,0.8,1.1,0.8,1.8c0,0.8-0.3,1.4-0.8,1.9c-0.5,0.5-1.2,0.8-2.1,0.8S85.1,84.7,84.6,84.2z M84.3,87.2H89v16.1h-4.7
								V87.2z"/>
							<path class="st1" d="M107,88c1.2,0.7,2.2,1.7,2.9,2.9s1.1,2.7,1.1,4.4c0,1.7-0.4,3.1-1.1,4.4s-1.7,2.2-2.9,2.9
								c-1.2,0.7-2.6,1-4.1,1c-2.2,0-3.9-0.7-5.1-2.1v1.9h-4.5V81.1H98v7.8c1.2-1.3,2.8-2,4.9-2C104.4,87,105.8,87.3,107,88z
								 M105.1,98.6c0.8-0.8,1.2-1.9,1.2-3.3c0-1.4-0.4-2.4-1.2-3.3c-0.8-0.8-1.8-1.2-3-1.2s-2.2,0.4-3,1.2
								c-0.8,0.8-1.2,1.9-1.2,3.3c0,1.4,0.4,2.4,1.2,3.3c0.8,0.8,1.8,1.2,3,1.2S104.3,99.4,105.1,98.6z"/>
							<path class="st1" d="M130.3,87.2v16.1h-4.4v-1.9c-0.6,0.7-1.4,1.2-2.2,1.6c-0.9,0.4-1.8,0.6-2.8,0.6c-2.1,0-3.8-0.6-5-1.8
								c-1.2-1.2-1.9-3-1.9-5.4v-9.1h4.7v8.4c0,2.6,1.1,3.9,3.3,3.9c1.1,0,2-0.4,2.7-1.1c0.7-0.7,1-1.8,1-3.3v-8H130.3z"/>
							<path class="st1" d="M145.1,102.6c-0.5,0.3-1,0.6-1.7,0.8c-0.7,0.2-1.4,0.3-2.1,0.3c-1.9,0-3.4-0.5-4.5-1.5
								c-1-1-1.6-2.4-1.6-4.3v-6.6h-2.5v-3.6h2.5v-3.9h4.7v3.9h4v3.6h-4v6.6c0,0.7,0.2,1.2,0.5,1.6s0.8,0.6,1.5,0.6
								c0.7,0,1.4-0.2,1.9-0.6L145.1,102.6z"/>
							<path class="st1" d="M163.4,96.6h-12.2c0.2,1,0.7,1.8,1.6,2.4s1.8,0.9,3.1,0.9c0.8,0,1.6-0.1,2.2-0.4
								c0.7-0.2,1.3-0.6,1.8-1.2l2.5,2.7c-1.5,1.7-3.7,2.6-6.7,2.6c-1.8,0-3.4-0.4-4.8-1.1c-1.4-0.7-2.5-1.7-3.2-3
								c-0.8-1.3-1.1-2.7-1.1-4.3c0-1.6,0.4-3,1.1-4.3s1.8-2.3,3.1-3c1.3-0.7,2.8-1.1,4.4-1.1c1.6,0,3,0.3,4.3,1
								c1.3,0.7,2.3,1.7,3,2.9c0.7,1.3,1.1,2.7,1.1,4.4C163.5,95.4,163.5,95.8,163.4,96.6z M152.5,91.4c-0.7,0.6-1.2,1.4-1.3,2.5h8
								c-0.2-1-0.6-1.8-1.3-2.4c-0.7-0.6-1.6-0.9-2.6-0.9C154.1,90.5,153.2,90.8,152.5,91.4z"/>
							<path class="st1" d="M185.6,102.6c-0.5,0.3-1,0.6-1.7,0.8c-0.7,0.2-1.4,0.3-2.1,0.3c-1.9,0-3.4-0.5-4.5-1.5
								c-1.1-1-1.6-2.4-1.6-4.3v-6.6h-2.5v-3.6h2.5v-3.9h4.7v3.9h4v3.6h-4v6.6c0,0.7,0.2,1.2,0.5,1.6c0.4,0.4,0.8,0.6,1.5,0.6
								c0.7,0,1.4-0.2,1.9-0.6L185.6,102.6z"/>
							<path class="st1" d="M191.3,102.6c-1.3-0.7-2.4-1.7-3.2-3c-0.8-1.3-1.1-2.7-1.1-4.3c0-1.6,0.4-3,1.1-4.3
								c0.8-1.3,1.8-2.2,3.2-3c1.4-0.7,2.9-1.1,4.6-1.1s3.2,0.4,4.6,1.1c1.3,0.7,2.4,1.7,3.1,3c0.8,1.3,1.1,2.7,1.1,4.3
								c0,1.6-0.4,3-1.1,4.3c-0.8,1.3-1.8,2.2-3.1,3c-1.3,0.7-2.9,1.1-4.6,1.1S192.7,103.3,191.3,102.6z M198.8,98.6
								c0.8-0.8,1.2-1.9,1.2-3.3c0-1.4-0.4-2.4-1.2-3.3c-0.8-0.8-1.8-1.2-3-1.2s-2.2,0.4-3,1.2c-0.8,0.8-1.2,1.9-1.2,3.3
								c0,1.4,0.4,2.4,1.2,3.3c0.8,0.8,1.8,1.2,3,1.2S198.1,99.4,198.8,98.6z"/>
						</g>
						<g class="st2">
							<path class="st0" d="M216.6,102.9c-1.2-0.5-2.2-1.3-2.9-2.3l2.7-3.2c1.1,1.5,2.4,2.3,3.9,2.3c2,0,3-1.2,3-3.5v-10h-7.4v-3.9
								h12.2V96c0,2.6-0.6,4.5-1.9,5.8c-1.3,1.3-3.2,1.9-5.6,1.9C219.1,103.7,217.8,103.5,216.6,102.9z"/>
							<path class="st0" d="M235.7,102.6c-1.3-0.7-2.4-1.7-3.2-3c-0.8-1.3-1.1-2.7-1.1-4.3c0-1.6,0.4-3,1.1-4.3
								c0.8-1.3,1.8-2.2,3.2-3c1.4-0.7,2.9-1.1,4.6-1.1c1.7,0,3.2,0.4,4.6,1.1c1.3,0.7,2.4,1.7,3.2,3c0.8,1.3,1.1,2.7,1.1,4.3
								c0,1.6-0.4,3-1.1,4.3c-0.8,1.3-1.8,2.2-3.2,3s-2.9,1.1-4.6,1.1C238.5,103.6,237,103.3,235.7,102.6z M243.2,98.6
								c0.8-0.8,1.2-1.9,1.2-3.3c0-1.4-0.4-2.4-1.2-3.3c-0.8-0.8-1.8-1.2-3-1.2s-2.2,0.4-3,1.2c-0.8,0.8-1.2,1.9-1.2,3.3
								c0,1.4,0.4,2.4,1.2,3.3c0.8,0.8,1.8,1.2,3,1.2S242.4,99.4,243.2,98.6z"/>
							<path class="st0" d="M266.9,88.8c1.2,1.2,1.8,3,1.8,5.3v9.2H264v-8.5c0-1.3-0.3-2.2-0.8-2.9c-0.6-0.6-1.4-0.9-2.4-0.9
								c-1.2,0-2.1,0.4-2.8,1.1c-0.7,0.7-1.1,1.8-1.1,3.3v8h-4.7V81.1h4.7v7.8c0.6-0.6,1.4-1.1,2.2-1.4S261,87,262,87
								C264,87,265.6,87.6,266.9,88.8z"/>
							<path class="st0" d="M287.6,88.8c1.2,1.2,1.8,3,1.8,5.3v9.2h-4.7v-8.5c0-1.3-0.3-2.2-0.8-2.9s-1.4-0.9-2.4-0.9
								c-1.2,0-2.1,0.4-2.8,1.1c-0.7,0.7-1,1.8-1,3.3v8h-4.7V87.2h4.5v1.9c0.6-0.7,1.4-1.2,2.3-1.6s1.9-0.6,3-0.6
								C284.8,87,286.4,87.6,287.6,88.8z"/>
							<path class="st0" d="M306.7,102.3c-1.7-0.9-3.1-2.2-4.1-3.9c-1-1.6-1.5-3.5-1.5-5.6s0.5-3.9,1.5-5.6c1-1.7,2.4-2.9,4.1-3.9
								c1.7-0.9,3.7-1.4,5.8-1.4c1.8,0,3.5,0.3,4.9,1c1.5,0.6,2.7,1.6,3.7,2.8l-3.1,2.9c-1.4-1.6-3.2-2.5-5.3-2.5
								c-1.3,0-2.5,0.3-3.5,0.9c-1,0.6-1.8,1.4-2.4,2.4c-0.6,1-0.9,2.2-0.9,3.5c0,1.3,0.3,2.5,0.9,3.5c0.6,1,1.4,1.8,2.4,2.4
								c1,0.6,2.2,0.9,3.5,0.9c2.1,0,3.9-0.8,5.3-2.5l3.1,2.9c-1,1.2-2.2,2.1-3.7,2.8c-1.5,0.6-3.1,1-5,1
								C310.4,103.7,308.5,103.3,306.7,102.3z"/>
							<path class="st0" d="M324.2,81.1h4.7v22.3h-4.7V81.1z"/>
							<path class="st0" d="M348.9,96.6h-12.2c0.2,1,0.7,1.8,1.6,2.4c0.8,0.6,1.8,0.9,3.1,0.9c0.8,0,1.6-0.1,2.2-0.4
								c0.6-0.2,1.3-0.6,1.8-1.2l2.5,2.7c-1.5,1.7-3.7,2.6-6.7,2.6c-1.8,0-3.4-0.4-4.8-1.1c-1.4-0.7-2.5-1.7-3.2-3
								c-0.8-1.3-1.1-2.7-1.1-4.3c0-1.6,0.4-3,1.1-4.3s1.8-2.3,3.1-3c1.3-0.7,2.8-1.1,4.4-1.1c1.6,0,3,0.3,4.3,1
								c1.3,0.7,2.3,1.7,3,2.9c0.7,1.3,1.1,2.7,1.1,4.4C349,95.4,349,95.8,348.9,96.6z M338,91.4c-0.7,0.6-1.2,1.4-1.3,2.5h8
								c-0.2-1-0.6-1.8-1.3-2.4s-1.6-0.9-2.6-0.9C339.6,90.5,338.7,90.8,338,91.4z"/>
							<path class="st0" d="M367.8,96.6h-12.2c0.2,1,0.7,1.8,1.6,2.4s1.8,0.9,3.1,0.9c0.8,0,1.6-0.1,2.2-0.4
								c0.7-0.2,1.3-0.6,1.8-1.2l2.5,2.7c-1.5,1.7-3.7,2.6-6.7,2.6c-1.8,0-3.4-0.4-4.8-1.1c-1.4-0.7-2.5-1.7-3.2-3
								c-0.8-1.3-1.1-2.7-1.1-4.3c0-1.6,0.4-3,1.1-4.3s1.8-2.3,3.1-3c1.3-0.7,2.8-1.1,4.4-1.1c1.6,0,3,0.3,4.3,1
								c1.3,0.7,2.3,1.7,3,2.9c0.7,1.3,1.1,2.7,1.1,4.4C367.9,95.4,367.9,95.8,367.8,96.6z M356.9,91.4c-0.7,0.6-1.2,1.4-1.3,2.5h8
								c-0.2-1-0.6-1.8-1.3-2.4c-0.7-0.6-1.6-0.9-2.6-0.9C358.5,90.5,357.6,90.8,356.9,91.4z"/>
							<path class="st0" d="M372.5,103.1c-1.3-0.3-2.3-0.7-3.1-1.2l1.6-3.4c0.7,0.5,1.6,0.8,2.6,1.1c1,0.3,2,0.4,3,0.4
								c2,0,3-0.5,3-1.5c0-0.5-0.3-0.8-0.8-1s-1.4-0.4-2.5-0.5c-1.3-0.2-2.4-0.4-3.3-0.7c-0.9-0.3-1.6-0.7-2.2-1.4s-0.9-1.6-0.9-2.8
								c0-1,0.3-1.9,0.9-2.7c0.6-0.8,1.4-1.4,2.6-1.8c1.1-0.4,2.5-0.7,4-0.7c1.1,0,2.3,0.1,3.4,0.4c1.1,0.2,2.1,0.6,2.8,1l-1.6,3.3
								c-1.4-0.8-3-1.2-4.7-1.2c-1,0-1.8,0.1-2.2,0.4s-0.8,0.6-0.8,1.1c0,0.5,0.3,0.9,0.8,1c0.5,0.2,1.4,0.4,2.6,0.6
								c1.3,0.2,2.4,0.5,3.2,0.7s1.6,0.7,2.2,1.4c0.6,0.7,0.9,1.6,0.9,2.8c0,1-0.3,1.9-0.9,2.7c-0.6,0.8-1.5,1.4-2.6,1.8
								c-1.1,0.4-2.5,0.6-4.1,0.6C375.1,103.6,373.8,103.5,372.5,103.1z"/>
							<path class="st0" d="M402.7,96.6h-12.2c0.2,1,0.7,1.8,1.6,2.4c0.8,0.6,1.8,0.9,3.1,0.9c0.8,0,1.6-0.1,2.2-0.4
								c0.6-0.2,1.3-0.6,1.8-1.2l2.5,2.7c-1.5,1.7-3.7,2.6-6.7,2.6c-1.8,0-3.4-0.4-4.8-1.1c-1.4-0.7-2.5-1.7-3.2-3
								c-0.8-1.3-1.1-2.7-1.1-4.3c0-1.6,0.4-3,1.1-4.3s1.8-2.3,3.1-3c1.3-0.7,2.8-1.1,4.4-1.1c1.6,0,3,0.3,4.3,1
								c1.3,0.7,2.3,1.7,3,2.9c0.7,1.3,1.1,2.7,1.1,4.4C402.8,95.4,402.8,95.8,402.7,96.6z M391.7,91.4c-0.7,0.6-1.2,1.4-1.3,2.5
								h7.9c-0.2-1-0.6-1.8-1.3-2.4c-0.7-0.6-1.6-0.9-2.6-0.9C393.4,90.5,392.5,90.8,391.7,91.4z"/>
						</g>
					</g>
				</g>
				<g id="Group-10-Copy-2" transform="translate(246.820840, 0.004702)">
					<polygon id="_x2A_" class="st0" points="30.3,17.7 38.2,21.8 32.5,31 24.5,26.1 24.8,34.8 13.8,34.8 14.1,26.1 6.1,31 
						0.5,21.8 8.4,17.7 0.5,13.5 6.1,4.4 14.1,9.3 13.8,0.6 24.8,0.6 24.5,9.3 32.5,4.4 38.2,13.5 					"/>
				</g>
			</g>
			<g id="Oval-Copy-21">
				<g class="st3">
					<ellipse id="path-1_2_" cx="138.3" cy="65.3" rx="34.7" ry="36"/>
				</g>
				<g>
					<ellipse id="path-1_1_" class="st0" cx="138.3" cy="65.3" rx="34.7" ry="36"/>
				</g>
			</g>
			<g id="Rectangle-Copy-13">
				<g class="st4">
					<path id="path-3_2_" d="M338.4,9.9l52.6,52.6c2.7,2.7,2.7,7.2,0,9.9l-52.6,52.6c-2.7,2.7-7.2,2.7-9.9,0l-52.6-52.6
						c-2.7-2.7-2.7-7.2,0-9.9l52.6-52.6C331.3,7.2,335.7,7.2,338.4,9.9z"/>
				</g>
				<g>
					<path id="path-3_1_" class="st1" d="M338.4,9.9l52.6,52.6c2.7,2.7,2.7,7.2,0,9.9l-52.6,52.6c-2.7,2.7-7.2,2.7-9.9,0l-52.6-52.6
						c-2.7-2.7-2.7-7.2,0-9.9l52.6-52.6C331.3,7.2,335.7,7.2,338.4,9.9z"/>
				</g>
			</g>
		</g>
	</g>
</g>
</svg>
