<?xml version="1.0" encoding="utf-8"?>
<!-- Generator: Adobe Illustrator 21.1.0, SVG Export Plug-In . SVG Version: 6.00 Build 0)  -->
<svg version="1.1" id="Layer_1" xmlns="http://www.w3.org/2000/svg" xmlns:xlink="http://www.w3.org/1999/xlink" x="0px" y="0px"
	 viewBox="0 0 1680 967" style="enable-background:new 0 0 1680 967;" xml:space="preserve">
<style type="text/css">
	.st0{fill:none;stroke:#5AA3A0;stroke-width:7;stroke-linecap:round;stroke-linejoin:round;}
	.st1{fill:none;stroke:#FE5B47;stroke-width:7;stroke-linecap:round;stroke-linejoin:round;}
</style>
<title>Artboard Copy 30</title>
<desc>Created with Sketch.</desc>
<ellipse id="Oval" transform="matrix(0.1564 -0.9877 0.9877 0.1564 193.7911 622.4386)" class="st0" cx="461.3" cy="197.8" rx="24.8" ry="24.8"/>
<path id="Path-11" class="st0" d="M526.7,254.6c-10.5-3.6-19.4-2.6-26.8,3c-11,8.5-3.2,20.5-15,29.1s-20.1-3.6-32.3,5.3
	c-12.2,8.9-4.1,21.2-16.4,30.2c-12.4,9-19.5-4.1-33,5.8s-5.4,22.2-17.7,31.1c-7.1,5.2-16,5.6-26.6,1.4"/>
<g id="Triangle">
	<path class="st1" d="M434.6,366.1c2.4-3,5.6-2.5,7,1.1l12.1,31.2c1.4,3.6-0.6,6-4.4,5.4l-33.4-5.3c-3.8-0.6-4.9-3.5-2.5-6.5
		L434.6,366.1z"/>
</g>
<g id="Rectangle">
	<path class="st0" d="M348.2,216.2c-3.8-0.6-7.4,2-8,5.8l-4.9,31c-0.6,3.8,2,7.4,5.8,8l28.8,4.6c3.8,0.6,7.4-2,8-5.8l4.9-31
		c0.6-3.8-2-7.4-5.8-8L348.2,216.2z"/>
</g>
<path id="Line-2" class="st0" d="M351.7,288.8l-8.9,56.3"/>
<path id="Line-2-Copy-3" class="st0" d="M1411.2,806.4l-8.9,56.3"/>
<ellipse id="Oval_1_" transform="matrix(0.1564 -0.9877 0.9877 0.1564 94.2665 640.0587)" class="st1" cx="421.8" cy="264.8" rx="13.7" ry="13.7"/>
<ellipse id="Oval_5_" transform="matrix(0.1564 -0.9877 0.9877 0.1564 -121.5115 796.4833)" class="st0" cx="405.5" cy="469.4" rx="24.8" ry="24.8"/>
<path id="Path-11_2_" class="st1" d="M470.9,526.2c-10.5-3.6-19.4-2.6-26.8,3c-11,8.5-3.2,20.5-15,29.1s-20.1-3.6-32.3,5.3
	s-4.1,21.2-16.4,30.2c-12.4,9-19.5-4.1-33,5.8c-13.5,9.8-5.4,22.2-17.7,31.1c-7.1,5.2-16,5.6-26.6,1.4"/>
<path id="Path-11-Copy" class="st0" d="M1388.2,745.7c-10.5-3.6-19.4-2.6-26.8,3c-11,8.5-3.2,20.5-15,29.1s-20.1-3.6-32.3,5.3
	c-12.2,8.9-4.1,21.2-16.4,30.2c-12.4,9-19.5-4.1-33,5.8c-13.5,9.8-5.4,22.2-17.7,31.1c-7.1,5.2-16,5.6-26.6,1.4"/>
<g id="Triangle_2_">
	<path class="st1" d="M378.8,637.7c2.4-3,5.6-2.5,7,1.1l12.1,31.2c1.4,3.6-0.6,6-4.4,5.4l-33.4-5.3c-3.8-0.6-4.9-3.5-2.5-6.5
		L378.8,637.7z"/>
</g>
<ellipse id="Oval_6_" transform="matrix(0.1564 -0.9877 0.9877 0.1564 -220.9254 814.0356)" class="st1" cx="366.1" cy="536.3" rx="13.7" ry="13.7"/>
<ellipse id="Oval-Copy-2" transform="matrix(0.1564 -0.9877 0.9877 0.1564 9.728425e-02 327.4099)" class="st1" cx="191.7" cy="163.6" rx="13.7" ry="13.7"/>
<path id="Oval_7_" class="st0" d="M543.7,644.3c4.9-31.1-16.3-60.3-47.4-65.2s-60.3,16.3-65.2,47.4"/>
<ellipse id="Oval-Copy_2_" transform="matrix(0.1564 -0.9877 0.9877 0.1564 -280.1515 1035.8794)" class="st0" cx="466.3" cy="681.9" rx="34.7" ry="34.7"/>
<path id="Line-2-Copy_2_" class="st1" d="M1280.6,294.1l20.1-24.8"/>
<path id="Oval_8_" class="st0" d="M1213.8,187.5c3.3,31.3,31.3,54,62.6,50.7c31.3-3.3,54-31.3,50.7-62.6"/>
<ellipse id="Oval-Copy_3_" transform="matrix(0.9945 -0.1045 0.1045 0.9945 -7.4855 135.3258)" class="st0" cx="1287.7" cy="139.1" rx="34.7" ry="34.7"/>
<ellipse id="Oval_9_" transform="matrix(0.6428 -0.766 0.766 0.6428 212.5024 989.645)" class="st0" cx="1167.5" cy="267" rx="24.8" ry="24.8"/>
<g id="Rectangle_1_">
	<path class="st1" d="M1210,160.5c2.5-2.9,2.1-7.4-0.9-9.9l-24.1-20.2c-2.9-2.5-7.4-2.1-9.9,0.9l-18.7,22.3
		c-2.5,2.9-2.1,7.4,0.9,9.9l24.1,20.2c2.9,2.5,7.4,2.1,9.9-0.9L1210,160.5z"/>
</g>
<ellipse id="Oval_15_" transform="matrix(0.7314 -0.682 0.682 0.7314 330.8143 922.9835)" class="st0" cx="1337" cy="41.6" rx="24.8" ry="24.8"/>
<path id="Line-2-Copy_5_" class="st1" d="M1259.5,94.8l1.1-31.9"/>
<path id="Oval_16_" class="st0" d="M1154,50.8c21.5,23,57.5,24.3,80.5,2.8s24.3-57.5,2.8-80.5"/>
<ellipse id="Oval_20_" transform="matrix(0.9903 -0.1392 0.1392 0.9903 -8.3667 63.3779)" class="st0" cx="448.9" cy="91.5" rx="24.8" ry="24.8"/>
<path id="Line-2-Copy-5" class="st0" d="M135.3,786.9l56.4-7.9"/>
<path id="Line-2-Copy-8" class="st0" d="M1429,360.2l56.4-7.9"/>
<ellipse id="Oval_22_" transform="matrix(0.8192 -0.5736 0.5736 0.8192 -356.9199 414.6662)" class="st0" cx="479.1" cy="773.3" rx="24.8" ry="24.8"/>
<g id="Triangle_8_">
	<path class="st1" d="M340.2,870.5c3.8-0.3,5.7,2.3,4,5.8l-14,30.4c-1.6,3.5-4.7,3.8-6.9,0.6l-19.4-27.7c-2.2-3.2-0.9-6,3-6.3
		L340.2,870.5z"/>
</g>
<g id="Rectangle_6_">
	<path class="st0" d="M388.2,704.2c-2.2-3.2-6.6-3.9-9.7-1.7l-25.7,18c-3.2,2.2-3.9,6.6-1.7,9.7l16.7,23.9c2.2,3.2,6.6,3.9,9.7,1.7
		l25.7-18c3.2-2.2,3.9-6.6,1.7-9.7L388.2,704.2z"/>
</g>
<path id="Line-2-Copy_7_" class="st1" d="M508.3,895.3l-31.4-5.5"/>
<ellipse id="Oval_23_" transform="matrix(0.8192 -0.5736 0.5736 0.8192 -380.5584 375.0138)" class="st1" cx="404.4" cy="791" rx="13.7" ry="13.7"/>
<path id="Oval_24_" class="st0" d="M450.1,993.6c25.8-18.1,32-53.6,14-79.4c-18.1-25.8-53.6-32-79.4-14"/>
<ellipse id="Oval-Copy_7_" transform="matrix(0.8192 -0.5736 0.5736 0.8192 -486.2793 386.219)" class="st1" cx="369.3" cy="964.3" rx="34.7" ry="34.7"/>
<path id="Line-2-Copy-6" class="st1" d="M230.4,451.9l23.3-21.8"/>
<ellipse id="Oval_31_" transform="matrix(3.489886e-02 -0.9994 0.9994 3.489886e-02 731.5212 1832.3337)" class="st0" cx="1314.5" cy="537.4" rx="24.8" ry="24.8"/>
<path id="Line-2-Copy_10_" class="st1" d="M1199.5,487.3l23.3-21.8"/>
<ellipse id="Oval_32_" transform="matrix(3.489886e-02 -0.9994 0.9994 3.489886e-02 831.5518 1811.1215)" class="st1" cx="1353.5" cy="475" rx="13.7" ry="13.7"/>
<ellipse id="Oval-Copy-3" transform="matrix(3.489886e-02 -0.9994 0.9994 3.489886e-02 1177.4174 1611.577)" class="st1" cx="1423.1" cy="196.2" rx="13.7" ry="13.7"/>
<path id="Oval_33_" class="st0" d="M1156,381.6c-1.1,31.5,23.5,57.8,55,58.9s57.8-23.5,58.9-55"/>
<ellipse id="Oval-Copy_10_" transform="matrix(3.489886e-02 -0.9994 0.9994 3.489886e-02 850.6483 1550.527)" class="st1" cx="1228.1" cy="334.8" rx="34.7" ry="34.7"/>
<g id="Triangle_12_">
	<path class="st1" d="M1307.7,902.1c-2.1,3.3-5.2,3.1-7-0.2l-15.9-29.5c-1.8-3.4-0.2-6.1,3.7-5.9l33.8,1.2c3.8,0.1,5.3,2.9,3.3,6.2
		L1307.7,902.1z"/>
</g>
<path id="Line-2_10_" class="st0" d="M1340.7,948.1l2-56.9"/>
<path id="Oval_37_" class="st0" d="M1084.6,895.1c-1.1,31.5,23.5,57.8,55,58.9s57.8-23.5,58.9-55"/>
<ellipse id="Oval-Copy_12_" transform="matrix(3.489886e-02 -0.9994 0.9994 3.489886e-02 268.5414 1974.7493)" class="st1" cx="1156.7" cy="848.3" rx="34.7" ry="34.7"/>
<ellipse id="Oval_40_" transform="matrix(3.489886e-02 -0.9994 0.9994 3.489886e-02 450.7452 1965.5885)" class="st0" cx="1243.1" cy="749.4" rx="24.8" ry="24.8"/>
<path id="Path-11_10_" class="st1" d="M1171.3,702c10.9,2.3,19.6,0.2,26.2-6.2c9.9-9.7,0.6-20.8,11.3-30.8
	c10.7-10,20.4,1.1,31.5-9.2s1.5-21.5,12.6-32c11.2-10.4,19.8,1.7,32.1-9.7c12.2-11.4,2.7-22.7,13.8-33c6.4-6,15.2-7.6,26.2-4.7"/>
<g id="Triangle_13_">
	<path class="st1" d="M1249.1,580.2c-2.1,3.3-5.2,3.1-7-0.2l-15.9-29.5c-1.8-3.4-0.2-6.1,3.7-5.9l33.8,1.2c3.8,0.1,5.3,2.9,3.3,6.2
		L1249.1,580.2z"/>
</g>
<path id="Line-2_11_" class="st0" d="M1348.7,662.8l2-56.9"/>
<path id="Line-2-Copy_13_" class="st1" d="M1128.1,699.4l23.3-21.8"/>
<path id="Line-2-Copy-7" class="st1" d="M1493.2,853.9l23.3-21.8"/>
<ellipse id="Oval_41_" transform="matrix(3.489886e-02 -0.9994 0.9994 3.489886e-02 550.947 1928.7528)" class="st1" cx="1274.1" cy="679.1" rx="13.7" ry="13.7"/>
<path id="Oval_42_" class="st0" d="M1084.6,593.7c-1.1,31.5,23.5,57.8,55,58.9s57.8-23.5,58.9-55"/>
<ellipse id="Oval-Copy_13_" transform="matrix(3.489886e-02 -0.9994 0.9994 3.489886e-02 569.7691 1683.8746)" class="st0" cx="1156.7" cy="546.9" rx="34.7" ry="34.7"/>
<path id="Line-2-Copy_14_" class="st1" d="M351.2-7.2l-22.6,22.6"/>
<path id="Line-2-Copy-2" class="st1" d="M1296.6,451.2l-22.6,22.6"/>
</svg>
