<?xml version="1.0" encoding="UTF-8"?>
<svg  viewBox="0 0 461 119" version="1.1" xmlns="http://www.w3.org/2000/svg" xmlns:xlink="http://www.w3.org/1999/xlink">
    <!-- Generator: Sketch 55.2 (78181) - https://sketchapp.com -->
    <title>Group 27 Copy 4</title>
    <desc>Created with Sketch.</desc>
    <g id="Page-1" stroke="none" stroke-width="1" fill="none" fill-rule="evenodd">
        <g id="Group-27-Copy-4">
            <g id="Group-5-Copy-3" transform="translate(0.013134, 18.284375)">
                <g id="Group-9">
                    <path d="M32.6294625,68.6181 C26.5910323,68.6181 21.1510867,67.3533126 16.3094625,64.8237 C11.4678383,62.2940874 7.67347624,58.7581227 4.9262625,54.2157 C2.17904876,49.6732773 0.8054625,44.5189288 0.8054625,38.7525 C0.8054625,32.9860712 2.17904876,27.8317227 4.9262625,23.2893 C7.67347624,18.7468773 11.4678383,15.2109126 16.3094625,12.6813 C21.1510867,10.1516874 26.5910323,8.8869 32.6294625,8.8869 C38.1782902,8.8869 43.1286407,9.86609021 47.4806625,11.8245 C51.8326843,13.7829098 55.4230484,16.6116815 58.2518625,20.3109 L46.0934625,31.1637 C42.5574448,26.7028777 38.3958864,24.4725 33.6086625,24.4725 C29.5830424,24.4725 26.3462747,25.7644871 23.8982625,28.3485 C21.4502503,30.9325129 20.2262625,34.4004782 20.2262625,38.7525 C20.2262625,43.1045218 21.4502503,46.5724871 23.8982625,49.1565 C26.3462747,51.7405129 29.5830424,53.0325 33.6086625,53.0325 C38.3958864,53.0325 42.5574448,50.8021223 46.0934625,46.3413 L58.2518625,57.1941 C55.4230484,60.8933185 51.8326843,63.7220902 47.4806625,65.6805 C43.1286407,67.6389098 38.1782902,68.6181 32.6294625,68.6181 Z" id="Path" fill="#000000"></path>
                    <path d="M83.7734625,27.4917 C87.0374788,23.7380812 91.8518307,21.8613 98.2166625,21.8613 L98.2166625,38.1813 C96.7478552,37.9636989 95.3878688,37.8549 94.1366625,37.8549 C87.8262309,37.8549 84.6710625,41.0644679 84.6710625,47.4837 L84.6710625,67.3125 L66.2294625,67.3125 L66.2294625,22.6773 L83.7734625,22.6773 L83.7734625,27.4917 Z" id="Path" fill="#000000"></path>
                    <path d="M153.522263,44.9541 C153.522263,45.2261014 153.440663,46.6676869 153.277463,49.2789 L122.269463,49.2789 C122.922266,50.9653084 124.010255,52.2572955 125.533463,53.1549 C127.05667,54.0525045 128.960651,54.5013 131.245463,54.5013 C133.203872,54.5013 134.849456,54.2565024 136.182263,53.7669 C137.515069,53.2772976 138.970255,52.434106 140.547863,51.2373 L150.176663,60.9477 C145.824641,65.7349239 139.323906,68.1285 130.674263,68.1285 C125.288636,68.1285 120.555883,67.1357099 116.475863,65.1501 C112.395842,63.1644901 109.240674,60.4037177 107.010263,56.8677 C104.779851,53.3316823 103.664663,49.360522 103.664663,44.9541 C103.664663,40.4932777 104.766251,36.5085175 106.969463,32.9997 C109.172674,29.4908825 112.191843,26.7573098 116.027063,24.7989 C119.862282,22.8404902 124.173439,21.8613 128.960663,21.8613 C133.475885,21.8613 137.596644,22.758891 141.323063,24.5541 C145.049481,26.349309 148.014251,28.9876826 150.217463,32.4693 C152.420674,35.9509174 153.522263,40.1124758 153.522263,44.9541 Z" id="Path" fill="#000000"></path>
                    <path d="M129.123863,34.4277 C127.219853,34.4277 125.642269,34.9444948 124.391063,35.9781 C123.139856,37.0117052 122.323864,38.4804905 121.943063,40.3845 L136.304663,40.3845 C135.923861,38.5348908 135.107869,37.0797053 133.856663,36.0189 C132.605456,34.9580947 131.027872,34.4277 129.123863,34.4277 Z" id="Path" fill="#FE5B47"></path>
                    <path d="M181.083863,21.8613 C188.917502,21.8613 194.901442,23.6156825 199.035863,27.1245 C203.170283,30.6333175 205.237463,36.0324636 205.237463,43.3221 L205.237463,67.3125 L188.101463,67.3125 L188.101463,61.4373 C185.979852,65.8981223 181.763894,68.1285 175.453463,68.1285 C171.917445,68.1285 168.911875,67.5165061 166.436663,66.2925 C163.96145,65.0684939 162.084669,63.4093105 160.806263,61.3149 C159.527856,59.2204895 158.888663,56.8677131 158.888663,54.2565 C158.888663,49.850078 160.575046,46.5045114 163.947863,44.2197 C167.320679,41.9348886 172.434228,40.7925 179.288663,40.7925 L186.714263,40.7925 C186.11586,37.3108826 183.314288,35.5701 178.309463,35.5701 C176.296652,35.5701 174.256673,35.8828969 172.189463,36.5085 C170.122252,37.1341031 168.35427,37.9908946 166.885463,39.0789 L161.010263,26.9205 C163.567075,25.3428921 166.654244,24.1053045 170.271863,23.2077 C173.889481,22.3100955 177.493445,21.8613 181.083863,21.8613 Z" id="Path" fill="#000000"></path>
                    <path d="M181.002262,57.0309 C182.307869,57.0309 183.477457,56.6773035 184.511062,55.9701 C185.544668,55.2628965 186.30626,54.2021071 186.795862,52.7877 L186.795862,49.6869 L182.226262,49.6869 C178.472644,49.6869 176.595862,50.9380875 176.595862,53.4405 C176.595862,54.4741052 176.990259,55.3308966 177.779062,56.0109 C178.567866,56.6909034 179.642256,57.0309 181.002262,57.0309 Z" id="Path" fill="#8BD5D1"></path>
                    <path d="M249.119062,65.7621 C246.344649,67.3397079 242.563886,68.1285 237.776662,68.1285 C231.520631,68.1285 226.706279,66.6189151 223.333462,63.5997 C219.960646,60.5804849 218.274262,56.0517302 218.274262,50.0133 L218.274262,38.5893 L212.154262,38.5893 L212.154262,25.1253 L218.274262,25.1253 L218.274262,12.6405 L236.715862,12.6405 L236.715862,25.1253 L245.855062,25.1253 L245.855062,38.5893 L236.715862,38.5893 L236.715862,49.8501 C236.715862,51.2101068 237.069459,52.2708962 237.776662,53.0325 C238.483866,53.7941038 239.408657,54.1749 240.551062,54.1749 C242.12867,54.1749 243.515857,53.7669041 244.712662,52.9509 L249.119062,65.7621 Z" id="Path" fill="#000000"></path>
                    <polygon id="Path" fill="#000000" points="256.770262 22.6773 275.211862 22.6773 275.211862 67.3125 256.770262 67.3125"></polygon>
                    <polygon id="Path" fill="#000000" points="336.066262 22.6773 318.114262 67.3125 299.019862 67.3125 281.067862 22.6773 299.999062 22.6773 308.975062 46.5861 318.603862 22.6773"></polygon>
                    <polygon id="Path" fill="#000000" points="341.922262 22.6773 360.363862 22.6773 360.363862 67.3125 341.922262 67.3125"></polygon>
                    <path d="M351.143063,19.0869 C347.824646,19.0869 345.145473,18.2029088 343.105463,16.4349 C341.065452,14.6668912 340.045463,12.4229136 340.045463,9.7029 C340.045463,6.9828864 341.065452,4.73890884 343.105463,2.9709 C345.145473,1.20289116 347.824646,0.3189 351.143063,0.3189 C354.515879,0.3189 357.208652,1.16209157 359.221463,2.8485 C361.234273,4.53490843 362.240663,6.71088667 362.240663,9.3765 C362.240663,12.2053141 361.234273,14.5308909 359.221463,16.3533 C357.208652,18.1757091 354.515879,19.0869 351.143063,19.0869 Z" id="Path" fill="#8BD5D1"></path>
                    <path d="M404.408662,65.7621 C401.634249,67.3397079 397.853486,68.1285 393.066262,68.1285 C386.810231,68.1285 381.995879,66.6189151 378.623062,63.5997 C375.250246,60.5804849 373.563862,56.0517302 373.563862,50.0133 L373.563862,38.5893 L367.443862,38.5893 L367.443862,25.1253 L373.563862,25.1253 L373.563862,12.6405 L392.005462,12.6405 L392.005462,25.1253 L401.144662,25.1253 L401.144662,38.5893 L392.005462,38.5893 L392.005462,49.8501 C392.005462,51.2101068 392.359059,52.2708962 393.066262,53.0325 C393.773466,53.7941038 394.698257,54.1749 395.840662,54.1749 C397.41827,54.1749 398.805457,53.7669041 400.002262,52.9509 L404.408662,65.7621 Z" id="Path" fill="#000000"></path>
                    <path d="M460.938262,22.6773 L442.578262,68.2101 C440.239051,74.0309291 437.32868,78.1108883 433.847062,80.4501 C430.365445,82.7893117 426.095088,83.9589 421.035862,83.9589 C418.53345,83.9589 416.017475,83.5917037 413.487862,82.8573 C410.95825,82.1228963 408.95907,81.157306 407.490262,79.9605 L413.610262,67.3125 C414.535067,68.0197035 415.582257,68.5908978 416.751862,69.0261 C417.921468,69.4613022 419.050257,69.6789 420.138262,69.6789 C422.151073,69.6789 423.674257,69.080506 424.707862,67.8837 L405.939862,22.6773 L424.871062,22.6773 L434.091862,46.5861 L443.475862,22.6773 L460.938262,22.6773 Z" id="Path" fill="#000000"></path>
                    <g id="A-Tribute-to-John-Cl" transform="translate(65.322866, 80.919625)" fill-rule="nonzero">
                        <path d="M13.272,16.032 L6.168,16.032 L4.848,19.296 L4.26325641e-13,19.296 L7.416,2.496 L12.096,2.496 L19.536,19.296 L14.592,19.296 L13.272,16.032 Z M11.88,12.528 L9.72,7.152 L7.56,12.528 L11.88,12.528 Z M31.44,6.264 L26.28,6.264 L26.28,2.496 L41.328,2.496 L41.328,6.264 L36.192,6.264 L36.192,19.296 L31.44,19.296 L31.44,6.264 Z M47.232,7.848 C47.6960023,7.25599704 48.2999963,6.81200148 49.044,6.516 C49.7880037,6.21999852 50.6399952,6.072 51.6,6.072 L51.6,10.176 C51.1839979,10.1279998 50.8400014,10.104 50.568,10.104 C49.5919951,10.104 48.8280028,10.3679974 48.276,10.896 C47.7239972,11.4240026 47.448,12.2319946 47.448,13.32 L47.448,19.296 L42.888,19.296 L42.888,6.288 L47.232,6.288 L47.232,7.848 Z M53.52,6.288 L58.08,6.288 L58.08,19.296 L53.52,19.296 L53.52,6.288 Z M55.8,4.848 C54.9679958,4.848 54.2960026,4.61600232 53.784,4.152 C53.2719974,3.68799768 53.016,3.11200344 53.016,2.424 C53.016,1.73599656 53.2719974,1.16000232 53.784,0.696 C54.2960026,0.23199768 54.9679958,3.12638804e-13 55.8,3.12638804e-13 C56.6320042,3.12638804e-13 57.3039974,0.2199978 57.816,0.66 C58.3280026,1.1000022 58.584,1.66399656 58.584,2.352 C58.584,3.0720036 58.3280026,3.66799764 57.816,4.14 C57.3039974,4.61200236 56.6320042,4.848 55.8,4.848 Z M69.216,6.072 C70.4000059,6.072 71.4759952,6.34399728 72.444,6.888 C73.4120048,7.43200272 74.1799972,8.21199492 74.748,9.228 C75.3160028,10.2440051 75.6,11.4239933 75.6,12.768 C75.6,14.1120067 75.3160028,15.2959949 74.748,16.32 C74.1799972,17.3440051 73.4120048,18.1319972 72.444,18.684 C71.4759952,19.2360028 70.4000059,19.512 69.216,19.512 C67.5039914,19.512 66.2240042,19.008005 65.376,18 L65.376,19.296 L61.032,19.296 L61.032,1.488 L65.592,1.488 L65.592,7.416 C66.4720044,6.51999552 67.6799923,6.072 69.216,6.072 Z M68.256,15.888 C69.056004,15.888 69.7119974,15.6120028 70.224,15.06 C70.7360026,14.5079972 70.992,13.7440049 70.992,12.768 C70.992,11.8079952 70.7360026,11.0560027 70.224,10.512 C69.7119974,9.96799728 69.056004,9.696 68.256,9.696 C67.455996,9.696 66.8000026,9.96799728 66.288,10.512 C65.7759974,11.0560027 65.52,11.8079952 65.52,12.768 C65.52,13.7440049 65.7759974,14.5079972 66.288,15.06 C66.8000026,15.6120028 67.455996,15.888 68.256,15.888 Z M91.392,6.288 L91.392,19.296 L87.048,19.296 L87.048,17.904 C86.5679976,18.4320026 85.9920034,18.8319986 85.32,19.104 C84.6479966,19.3760014 83.9360038,19.512 83.184,19.512 C81.5039916,19.512 80.164,19.016005 79.164,18.024 C78.164,17.031995 77.664,15.5440099 77.664,13.56 L77.664,6.288 L82.224,6.288 L82.224,12.816 C82.224,13.7920049 82.4079982,14.5039978 82.776,14.952 C83.1440018,15.4000022 83.6799965,15.624 84.384,15.624 C85.1040036,15.624 85.6919977,15.3720025 86.148,14.868 C86.6040023,14.3639975 86.832,13.5920052 86.832,12.552 L86.832,6.288 L91.392,6.288 Z M103.296,18.768 C102.911998,19.0080012 102.444003,19.1919994 101.892,19.32 C101.339997,19.4480006 100.752003,19.512 100.128,19.512 C98.4319915,19.512 97.1280046,19.0960042 96.216,18.264 C95.3039954,17.4319958 94.848,16.1920082 94.848,14.544 L94.848,10.176 L92.952,10.176 L92.952,6.768 L94.848,6.768 L94.848,3.384 L99.408,3.384 L99.408,6.768 L102.384,6.768 L102.384,10.176 L99.408,10.176 L99.408,14.496 C99.408,14.9600023 99.5319988,15.3239987 99.78,15.588 C100.028001,15.8520013 100.359998,15.984 100.776,15.984 C101.304003,15.984 101.767998,15.8480014 102.168,15.576 L103.296,18.768 Z M118.344,12.816 C118.344,12.8480002 118.32,13.2239964 118.272,13.944 L108.816,13.944 C109.008001,14.6160034 109.379997,15.1319982 109.932,15.492 C110.484003,15.8520018 111.175996,16.032 112.008,16.032 C112.632003,16.032 113.171998,15.9440009 113.628,15.768 C114.084002,15.5919991 114.543998,15.304002 115.008,14.904 L117.408,17.4 C116.143994,18.808007 114.296012,19.512 111.864,19.512 C110.343992,19.512 109.008006,19.2240029 107.856,18.648 C106.703994,18.072 105.812003,17.2720051 105.18,16.248 C104.547997,15.2239949 104.232,14.0640065 104.232,12.768 C104.232,11.4879936 104.539997,10.3400051 105.156,9.324 C105.772003,8.30799492 106.623995,7.51200288 107.712,6.936 C108.800005,6.35999712 110.023993,6.072 111.384,6.072 C112.680006,6.072 113.855995,6.33999732 114.912,6.876 C115.968005,7.41200268 116.803997,8.18799492 117.42,9.204 C118.036003,10.2200051 118.344,11.423993 118.344,12.816 Z M111.408,9.312 C110.703996,9.312 110.116002,9.511998 109.644,9.912 C109.171998,10.312 108.872001,10.8559966 108.744,11.544 L114.072,11.544 C113.943999,10.8559966 113.644002,10.312 113.172,9.912 C112.699998,9.511998 112.112004,9.312 111.408,9.312 Z M136.416,18.768 C136.031998,19.0080012 135.564003,19.1919994 135.012,19.32 C134.459997,19.4480006 133.872003,19.512 133.248,19.512 C131.551992,19.512 130.248005,19.0960042 129.336,18.264 C128.423995,17.4319958 127.968,16.1920082 127.968,14.544 L127.968,10.176 L126.072,10.176 L126.072,6.768 L127.968,6.768 L127.968,3.384 L132.528,3.384 L132.528,6.768 L135.504,6.768 L135.504,10.176 L132.528,10.176 L132.528,14.496 C132.528,14.9600023 132.651999,15.3239987 132.9,15.588 C133.148001,15.8520013 133.479998,15.984 133.896,15.984 C134.424003,15.984 134.887998,15.8480014 135.288,15.576 L136.416,18.768 Z M144.696,19.512 C143.303993,19.512 142.048006,19.2240029 140.928,18.648 C139.807994,18.072 138.932003,17.2720051 138.3,16.248 C137.667997,15.2239949 137.352,14.0640065 137.352,12.768 C137.352,11.4879936 137.667997,10.3360051 138.3,9.312 C138.932003,8.28799488 139.803994,7.49200284 140.916,6.924 C142.028006,6.35599716 143.287993,6.072 144.696,6.072 C146.104007,6.072 147.367994,6.35599716 148.488,6.924 C149.608006,7.49200284 150.479997,8.28399492 151.104,9.3 C151.728003,10.3160051 152.04,11.4719935 152.04,12.768 C152.04,14.0640065 151.728003,15.2239949 151.104,16.248 C150.479997,17.2720051 149.608006,18.072 148.488,18.648 C147.367994,19.2240029 146.104007,19.512 144.696,19.512 Z M144.696,15.888 C145.496004,15.888 146.151997,15.6120028 146.664,15.06 C147.176003,14.5079972 147.432,13.7440049 147.432,12.768 C147.432,11.8079952 147.176003,11.0560027 146.664,10.512 C146.151997,9.96799728 145.496004,9.696 144.696,9.696 C143.895996,9.696 143.240003,9.96799728 142.728,10.512 C142.215997,11.0560027 141.96,11.8079952 141.96,12.768 C141.96,13.7440049 142.215997,14.5079972 142.728,15.06 C143.240003,15.6120028 143.895996,15.888 144.696,15.888 Z" id="ATributeto" fill="#8BD5D1"></path>
                        <path d="M165.024,19.632 C163.791994,19.632 162.672005,19.4200021 161.664,18.996 C160.655995,18.5719979 159.832003,17.960004 159.192,17.16 L161.784,14.088 C162.680004,15.2560058 163.647995,15.84 164.688,15.84 C165.376003,15.84 165.899998,15.6320021 166.26,15.216 C166.620002,14.7999979 166.8,14.192004 166.8,13.392 L166.8,6.168 L160.992,6.168 L160.992,2.496 L171.504,2.496 L171.504,13.104 C171.504,15.2800109 170.956005,16.9119946 169.86,18 C168.763995,19.0880054 167.152011,19.632 165.024,19.632 Z M181.032,19.512 C179.639993,19.512 178.384006,19.2240029 177.264,18.648 C176.143994,18.072 175.268003,17.2720051 174.636,16.248 C174.003997,15.2239949 173.688,14.0640065 173.688,12.768 C173.688,11.4879936 174.003997,10.3360051 174.636,9.312 C175.268003,8.28799488 176.139994,7.49200284 177.252,6.924 C178.364006,6.35599716 179.623993,6.072 181.032,6.072 C182.440007,6.072 183.703994,6.35599716 184.824,6.924 C185.944006,7.49200284 186.815997,8.28399492 187.44,9.3 C188.064003,10.3160051 188.376,11.4719935 188.376,12.768 C188.376,14.0640065 188.064003,15.2239949 187.44,16.248 C186.815997,17.2720051 185.944006,18.072 184.824,18.648 C183.703994,19.2240029 182.440007,19.512 181.032,19.512 Z M181.032,15.888 C181.832004,15.888 182.487997,15.6120028 183,15.06 C183.512003,14.5079972 183.768,13.7440049 183.768,12.768 C183.768,11.8079952 183.512003,11.0560027 183,10.512 C182.487997,9.96799728 181.832004,9.696 181.032,9.696 C180.231996,9.696 179.576003,9.96799728 179.064,10.512 C178.551997,11.0560027 178.296,11.8079952 178.296,12.768 C178.296,13.7440049 178.551997,14.5079972 179.064,15.06 C179.576003,15.6120028 180.231996,15.888 181.032,15.888 Z M198.96,6.072 C200.576008,6.072 201.875995,6.5519952 202.86,7.512 C203.844005,8.4720048 204.336,9.91999032 204.336,11.856 L204.336,19.296 L199.776,19.296 L199.776,12.6 C199.776,10.8239911 199.064007,9.936 197.64,9.936 C196.855996,9.936 196.228002,10.1919974 195.756,10.704 C195.283998,11.2160026 195.048,11.9839949 195.048,13.008 L195.048,19.296 L190.488,19.296 L190.488,1.488 L195.048,1.488 L195.048,7.488 C195.544002,7.02399768 196.127997,6.6720012 196.8,6.432 C197.472003,6.1919988 198.191996,6.072 198.96,6.072 Z M215.664,6.072 C217.280008,6.072 218.579995,6.5519952 219.564,7.512 C220.548005,8.4720048 221.04,9.91999032 221.04,11.856 L221.04,19.296 L216.48,19.296 L216.48,12.6 C216.48,10.8239911 215.768007,9.936 214.344,9.936 C213.559996,9.936 212.932002,10.1919974 212.46,10.704 C211.987998,11.2160026 211.752,11.9839949 211.752,13.008 L211.752,19.296 L207.192,19.296 L207.192,6.288 L211.536,6.288 L211.536,7.704 C212.048003,7.17599736 212.655996,6.7720014 213.36,6.492 C214.064004,6.2119986 214.831996,6.072 215.664,6.072 Z M239.472,19.632 C237.711991,19.632 236.132007,19.2600037 234.732,18.516 C233.331993,17.7719963 232.232,16.7360066 231.432,15.408 C230.631996,14.0799934 230.232,12.5760084 230.232,10.896 C230.232,9.2159916 230.631996,7.71200664 231.432,6.384 C232.232,5.05599336 233.331993,4.02000372 234.732,3.276 C236.132007,2.53199628 237.711991,2.16 239.472,2.16 C241.008008,2.16 242.391994,2.43199728 243.624,2.976 C244.856006,3.52000272 245.879996,4.30399488 246.696,5.328 L243.672,8.064 C242.583995,6.75199344 241.264008,6.096 239.712,6.096 C238.799995,6.096 237.988004,6.295998 237.276,6.696 C236.563996,7.096002 236.012002,7.66 235.62,8.388 C235.227998,9.11600364 235.032,9.95199528 235.032,10.896 C235.032,11.8400047 235.227998,12.6759964 235.62,13.404 C236.012002,14.1320036 236.563996,14.695998 237.276,15.096 C237.988004,15.496002 238.799995,15.696 239.712,15.696 C241.264008,15.696 242.583995,15.0400066 243.672,13.728 L246.696,16.464 C245.879996,17.4880051 244.856006,18.2719973 243.624,18.816 C242.391994,19.3600027 241.008008,19.632 239.472,19.632 Z M248.592,1.488 L253.152,1.488 L253.152,19.296 L248.592,19.296 L248.592,1.488 Z M269.4,12.816 C269.4,12.8480002 269.376,13.2239964 269.328,13.944 L259.872,13.944 C260.064001,14.6160034 260.435997,15.1319982 260.988,15.492 C261.540003,15.8520018 262.231996,16.032 263.064,16.032 C263.688003,16.032 264.227998,15.9440009 264.684,15.768 C265.140002,15.5919991 265.599998,15.304002 266.064,14.904 L268.464,17.4 C267.199994,18.808007 265.352012,19.512 262.92,19.512 C261.399992,19.512 260.064006,19.2240029 258.912,18.648 C257.759994,18.072 256.868003,17.2720051 256.236,16.248 C255.603997,15.2239949 255.288,14.0640065 255.288,12.768 C255.288,11.4879936 255.595997,10.3400051 256.212,9.324 C256.828003,8.30799492 257.679995,7.51200288 258.768,6.936 C259.856005,6.35999712 261.079993,6.072 262.44,6.072 C263.736006,6.072 264.911995,6.33999732 265.968,6.876 C267.024005,7.41200268 267.859997,8.18799492 268.476,9.204 C269.092003,10.2200051 269.4,11.423993 269.4,12.816 Z M262.464,9.312 C261.759996,9.312 261.172002,9.511998 260.7,9.912 C260.227998,10.312 259.928001,10.8559966 259.8,11.544 L265.128,11.544 C264.999999,10.8559966 264.700002,10.312 264.228,9.912 C263.755998,9.511998 263.168004,9.312 262.464,9.312 Z M284.808,12.816 C284.808,12.8480002 284.784,13.2239964 284.736,13.944 L275.28,13.944 C275.472001,14.6160034 275.843997,15.1319982 276.396,15.492 C276.948003,15.8520018 277.639996,16.032 278.472,16.032 C279.096003,16.032 279.635998,15.9440009 280.092,15.768 C280.548002,15.5919991 281.007998,15.304002 281.472,14.904 L283.872,17.4 C282.607994,18.808007 280.760012,19.512 278.328,19.512 C276.807992,19.512 275.472006,19.2240029 274.32,18.648 C273.167994,18.072 272.276003,17.2720051 271.644,16.248 C271.011997,15.2239949 270.696,14.0640065 270.696,12.768 C270.696,11.4879936 271.003997,10.3400051 271.62,9.324 C272.236003,8.30799492 273.087995,7.51200288 274.176,6.936 C275.264005,6.35999712 276.487993,6.072 277.848,6.072 C279.144006,6.072 280.319995,6.33999732 281.376,6.876 C282.432005,7.41200268 283.267997,8.18799492 283.884,9.204 C284.500003,10.2200051 284.808,11.423993 284.808,12.816 Z M277.872,9.312 C277.167996,9.312 276.580002,9.511998 276.108,9.912 C275.635998,10.312 275.336001,10.8559966 275.208,11.544 L280.536,11.544 C280.407999,10.8559966 280.108002,10.312 279.636,9.912 C279.163998,9.511998 278.576004,9.312 277.872,9.312 Z M291.648,19.512 C290.559995,19.512 289.488005,19.3880012 288.432,19.14 C287.375995,18.8919988 286.528003,18.568002 285.888,18.168 L287.256,15.048 C287.848003,15.4160018 288.551996,15.7079989 289.368,15.924 C290.184004,16.1400011 290.991996,16.248 291.792,16.248 C292.528004,16.248 293.051998,16.1720008 293.364,16.02 C293.676002,15.8679992 293.832,15.6480014 293.832,15.36 C293.832,15.072 293.644002,14.8680006 293.268,14.748 C292.891998,14.6279994 292.296004,14.5120006 291.48,14.4 C290.439995,14.2719994 289.556004,14.104001 288.828,13.896 C288.099996,13.687999 287.472003,13.3040028 286.944,12.744 C286.415997,12.1839972 286.152,11.400005 286.152,10.392 C286.152,9.55999584 286.399998,8.82000324 286.896,8.172 C287.392002,7.52399676 288.115995,7.01200188 289.068,6.636 C290.020005,6.25999812 291.159993,6.072 292.488,6.072 C293.432005,6.072 294.367995,6.16799904 295.296,6.36 C296.224005,6.55200096 296.999997,6.82399824 297.624,7.176 L296.256,10.272 C295.103994,9.6319968 293.856007,9.312 292.512,9.312 C291.791996,9.312 291.264002,9.39599916 290.928,9.564 C290.591998,9.73200084 290.424,9.95199864 290.424,10.224 C290.424,10.5280015 290.607998,10.7399994 290.976,10.86 C291.344002,10.9800006 291.951996,11.1039994 292.8,11.232 C293.872005,11.3920008 294.759996,11.575999 295.464,11.784 C296.168004,11.992001 296.779997,12.3719972 297.3,12.924 C297.820003,13.4760028 298.08,14.247995 298.08,15.24 C298.08,16.0560041 297.832002,16.7879968 297.336,17.436 C296.839998,18.0840032 296.108005,18.5919982 295.14,18.96 C294.171995,19.3280018 293.008007,19.512 291.648,19.512 Z M313.344,12.816 C313.344,12.8480002 313.32,13.2239964 313.272,13.944 L303.816,13.944 C304.008001,14.6160034 304.379997,15.1319982 304.932,15.492 C305.484003,15.8520018 306.175996,16.032 307.008,16.032 C307.632003,16.032 308.171998,15.9440009 308.628,15.768 C309.084002,15.5919991 309.543998,15.304002 310.008,14.904 L312.408,17.4 C311.143994,18.808007 309.296012,19.512 306.864,19.512 C305.343992,19.512 304.008006,19.2240029 302.856,18.648 C301.703994,18.072 300.812003,17.2720051 300.18,16.248 C299.547997,15.2239949 299.232,14.0640065 299.232,12.768 C299.232,11.4879936 299.539997,10.3400051 300.156,9.324 C300.772003,8.30799492 301.623995,7.51200288 302.712,6.936 C303.800005,6.35999712 305.023993,6.072 306.384,6.072 C307.680006,6.072 308.855995,6.33999732 309.912,6.876 C310.968005,7.41200268 311.803997,8.18799492 312.42,9.204 C313.036003,10.2200051 313.344,11.423993 313.344,12.816 Z M306.408,9.312 C305.703996,9.312 305.116002,9.511998 304.644,9.912 C304.171998,10.312 303.872001,10.8559966 303.744,11.544 L309.072,11.544 C308.943999,10.8559966 308.644002,10.312 308.172,9.912 C307.699998,9.511998 307.112004,9.312 306.408,9.312 Z" id="JohnCleese" fill="#FE5B47"></path>
                    </g>
                </g>
            </g>
            <g id="Group-10-Copy-2" transform="translate(246.820840, 0.004702)" fill="#FE5B47" fill-rule="nonzero">
                <polygon id="*" points="30.326725 17.6860875 38.160325 21.8476875 32.529925 30.9868875 24.533125 26.0908875 24.777925 34.8220875 13.843525 34.8220875 14.088325 26.0908875 6.091525 30.9868875 0.542725 21.8476875 8.376325 17.6860875 0.542725 13.5244875 6.091525 4.3852875 14.088325 9.2812875 13.843525 0.5500875 24.777925 0.5500875 24.533125 9.2812875 32.529925 4.3852875 38.160325 13.5244875"></polygon>
            </g>
        </g>
    </g>
</svg>