<?xml version="1.0" encoding="utf-8"?>
<!-- Generator: Adobe Illustrator 21.1.0, SVG Export Plug-In . SVG Version: 6.00 Build 0)  -->
<svg version="1.1" id="Layer_1" xmlns="http://www.w3.org/2000/svg" xmlns:xlink="http://www.w3.org/1999/xlink" x="0px" y="0px"
	 viewBox="0 0 153 172" style="enable-background:new 0 0 153 172;" xml:space="preserve">
<style type="text/css">
	.st0{fill:#8BD5D1;stroke:#5AA3A0;stroke-width:5;stroke-linejoin:round;}
	.st1{fill:#5AA3A0;stroke:#5AA3A0;stroke-width:5;}
	.st2{fill:none;stroke:#5AA3A0;stroke-width:5;stroke-linecap:round;}
	.st3{fill:#FE5B47;stroke:#FE5B47;stroke-width:5;stroke-linejoin:round;}
	.st4{fill:none;stroke:#FE5B47;stroke-width:5;stroke-linecap:round;}
	.st5{fill:#FE5B47;}
</style>
<title>Group 29</title>
<desc>Created with Sketch.</desc>
<g id="Page-1">
	
		<g id="Group-29" transform="translate(77.380843, 89.400444) rotate(23.000000) translate(-77.380843, -89.400444) translate(0.380843, -7.099556)">
		
			<g id="Group-3" transform="translate(53.500000, 146.685041) rotate(-30.000000) translate(-53.500000, -146.685041) translate(20.000000, 112.685041)">
			<polygon id="Path-10_1_" class="st0" points="23.3,5.4 0,68 60.7,43.4 			"/>
			
				<ellipse id="Oval_4_" transform="matrix(-0.7071 0.7071 -0.7071 -0.7071 89.9807 10.0901)" class="st1" cx="42.9" cy="23.7" rx="6.5" ry="26.9"/>
		</g>
		
			<g id="Group-20" transform="translate(76.803537, 62.500000) rotate(-80.000000) translate(-76.803537, -62.500000) translate(25.803537, -6.000000)">
			
				<ellipse id="Oval_1_" transform="matrix(-0.9877 -0.1564 0.1564 -0.9877 167.0421 98.6287)" class="st1" cx="87.4" cy="42.7" rx="10.9" ry="10.9"/>
			<path id="Path-11" class="st2" d="M82.1,80.4c-1.2-4.7-3.7-7.8-7.5-9.1c-5.7-2-8.3,3.7-14.3,1.4c-6-2.3-3.5-8.3-9.7-10.6
				c-6.2-2.4-8.8,3.6-15,1.2c-6.3-2.4-3.2-8.1-10-10.8c-6.9-2.6-9.4,3.3-15.7,0.9C6.3,52,4,48.9,3,44"/>
			<polygon id="Triangle" class="st3" points="22.1,73.5 9.9,90.5 1.4,71.3 			"/>
			
				<rect id="Rectangle" x="38.1" y="7" transform="matrix(-0.9136 0.4067 -0.4067 -0.9136 96.4475 10.4645)" class="st3" width="18" height="17"/>
			<path id="Line-2" class="st2" d="M27.2,24.5L5.3,34.2"/>
			<path id="Line-2-Copy" class="st4" d="M89.4,98l-13.1-5"/>
			
				<ellipse id="Oval_2_" transform="matrix(-0.9877 -0.1564 0.1564 -0.9877 98.8316 96.4679)" class="st5" cx="53.2" cy="44.3" rx="6" ry="6"/>
			<path id="Oval_3_" class="st4" d="M56,135.5c12.6-5.6,18.3-20.4,12.7-33c-5.6-12.6-20.4-18.3-33-12.7"/>
			
				<ellipse id="Oval-Copy" transform="matrix(-0.9877 -0.1564 0.1564 -0.9877 28.9283 234.4099)" class="st1" cx="23.7" cy="116.1" rx="15.2" ry="15.2"/>
		</g>
	</g>
</g>
</svg>
