<?xml version="1.0" encoding="utf-8"?>
<!-- Generator: Adobe Illustrator 21.1.0, SVG Export Plug-In . SVG Version: 6.00 Build 0)  -->
<svg version="1.1" id="Layer_1" xmlns="http://www.w3.org/2000/svg" xmlns:xlink="http://www.w3.org/1999/xlink" x="0px" y="0px"
	 viewBox="0 0 101 130" style="enable-background:new 0 0 101 130;" xml:space="preserve">
<style type="text/css">
	.st0{filter:url(#filter-1);}
	.st1{fill:none;stroke:#939393;stroke-width:13.86;}
	.st2{fill:#efefef;stroke:#c5c5c5;stroke-width:7;}
</style>
<filter  filterUnits="objectBoundingBox" height="116.8%" id="filter-1" width="121.9%" x="-10.9%" y="-8.4%">
	<feOffset  dx="-4" dy="5" in="SourceAlpha" result="shadowOffsetOuter1"></feOffset>
	
		<feColorMatrix  in="shadowOffsetOuter1" result="shadowMatrixOuter1" type="matrix" values="0 0 0 0 0   0 0 0 0 0   0 0 0 0 0  0 0 0 0.1 0">
		</feColorMatrix>
	<feMerge>
		<feMergeNode  in="shadowMatrixOuter1"></feMergeNode>
		<feMergeNode  in="SourceGraphic"></feMergeNode>
	</feMerge>
</filter>
<title>Group 28</title>
<desc>Created with Sketch.</desc>
<g id="Page-1">
	<g id="Desktop-Copy-12" transform="translate(-319.000000, -601.000000)">
		<g id="Group-48" transform="translate(116.000000, 468.215720)">
			<g id="Group-28" transform="translate(207.500000, 132.784280)" class="st0">
				<path id="Rectangle-Copy-21_1_" class="st1" d="M17.5,71.8h61.2V37.7C78.7,20.8,65,7.1,48.1,7.1S17.5,20.8,17.5,37.7V71.8z"/>
				<path id="Rectangle-Copy-23_1_" class="st2" d="M8.1,56.7h79.6c2.6,0,4.6,2.1,4.6,4.6v55.4c0,2.6-2.1,4.6-4.6,4.6H8.1
					c-2.6,0-4.6-2.1-4.6-4.6V61.4C3.5,58.8,5.6,56.7,8.1,56.7z"/>
				<path id="Combined-Shape_1_" d="M42.9,88.2c-3.1-1.8-5.2-5.2-5.2-9c0-5.7,4.7-10.4,10.4-10.4s10.4,4.7,10.4,10.4
					c0,4.3-2.6,7.9-6.3,9.5l2.8,20.5H40L42.9,88.2z"/>
			</g>
		</g>
	</g>
</g>
</svg>
