<svg id="Layer_1" data-name="Layer 1" xmlns="http://www.w3.org/2000/svg" viewBox="0 0 30.014 9.182"><defs><style>.cls-1{fill:#fff;}.cls-2{fill:#ca3722;}</style></defs><title>Artboard 3</title><path class="cls-1" d="M5.832,2.84a.618.618,0,0,1,.192.462.943.943,0,0,1-.1.36L3.685,8.606a.753.753,0,0,1-.246.324.668.668,0,0,1-.366.132l-.107.013a.633.633,0,0,1-.379-.126.832.832,0,0,1-.27-.343L.084,3.662A.957.957,0,0,1,0,3.278.6.6,0,0,1,.2,2.84a.7.7,0,0,1,.5-.2.775.775,0,0,1,.42.12.74.74,0,0,1,.288.336L3.072,6.89,4.717,3.11a.788.788,0,0,1,.264-.348.566.566,0,0,1,.372-.108A.662.662,0,0,1,5.832,2.84Z"/><path class="cls-1" d="M12.416,6.17a.764.764,0,0,1-.5.18H7.952a1.809,1.809,0,0,0,.659,1.11,1.849,1.849,0,0,0,1.164.4,2.569,2.569,0,0,0,.769-.09,2,2,0,0,0,.438-.191l.223-.139a.919.919,0,0,1,.407-.107.59.59,0,0,1,.433.18.575.575,0,0,1,.18.42.75.75,0,0,1-.336.588,2.853,2.853,0,0,1-.9.469,3.724,3.724,0,0,1-2.9-.229A2.936,2.936,0,0,1,6.932,7.6a3.383,3.383,0,0,1-.408-1.662A3.677,3.677,0,0,1,6.956,4.13,3.069,3.069,0,0,1,8.1,2.936a2.95,2.95,0,0,1,1.512-.414,2.8,2.8,0,0,1,1.494.433,3.232,3.232,0,0,1,1.122,1.164,3.123,3.123,0,0,1,.42,1.584A.617.617,0,0,1,12.416,6.17ZM7.964,5.15h3.144V5.066a1.234,1.234,0,0,0-.491-.863,1.56,1.56,0,0,0-1.009-.36A1.49,1.49,0,0,0,7.964,5.15Z"/><path class="cls-1" d="M17.759,2.726a.609.609,0,0,1,.246.48.743.743,0,0,1-.192.558.632.632,0,0,1-.456.187,1.2,1.2,0,0,1-.407-.084c-.024-.009-.078-.024-.162-.049a1,1,0,0,0-.271-.035,1.064,1.064,0,0,0-.6.191,1.4,1.4,0,0,0-.475.582,2.142,2.142,0,0,0-.186.93V8.33a.719.719,0,0,1-.2.521.739.739,0,0,1-1.032,0,.719.719,0,0,1-.2-.521V3.374a.723.723,0,0,1,.2-.522.739.739,0,0,1,1.032,0,.723.723,0,0,1,.2.522V3.53a1.827,1.827,0,0,1,.792-.75,2.436,2.436,0,0,1,1.1-.258A.919.919,0,0,1,17.759,2.726Z"/><path class="cls-1" d="M22.639,7.868a.634.634,0,0,1,.138.426.642.642,0,0,1-.354.546,1.465,1.465,0,0,1-.8.222,2.326,2.326,0,0,1-1.254-.317,1.484,1.484,0,0,1-.51-1.351V4.082h-.552a.656.656,0,0,1-.672-.672.616.616,0,0,1,.191-.462.663.663,0,0,1,.48-.187h.552V1.994a.717.717,0,0,1,.732-.732.678.678,0,0,1,.5.21.723.723,0,0,1,.2.522v.768h.852a.657.657,0,0,1,.672.672.617.617,0,0,1-.192.462.661.661,0,0,1-.479.187H21.3V7.334a.457.457,0,0,0,.132.366.53.53,0,0,0,.359.113,1.021,1.021,0,0,0,.265-.048.712.712,0,0,1,.275-.06A.4.4,0,0,1,22.639,7.868Z"/><path class="cls-1" d="M29.581,7.58A3.054,3.054,0,0,1,28.4,8.762a3.465,3.465,0,0,1-3.307,0A3.065,3.065,0,0,1,23.917,7.58a3.429,3.429,0,0,1-.432-1.723,3.428,3.428,0,0,1,.432-1.722,3.1,3.1,0,0,1,1.176-1.187,3.416,3.416,0,0,1,3.307,0,3.089,3.089,0,0,1,1.182,1.188,3.428,3.428,0,0,1,.433,1.722A3.429,3.429,0,0,1,29.581,7.58ZM28.327,4.808a1.81,1.81,0,0,0-.66-.714,1.8,1.8,0,0,0-1.836,0,1.817,1.817,0,0,0-.66.714,2.2,2.2,0,0,0-.246,1.05A2.161,2.161,0,0,0,25.171,6.9a1.821,1.821,0,0,0,.66.708,1.8,1.8,0,0,0,1.836,0,1.813,1.813,0,0,0,.66-.708,2.161,2.161,0,0,0,.246-1.044A2.2,2.2,0,0,0,28.327,4.808Z"/><path class="cls-2" d="M4.428,0H1.7a.337.337,0,0,0-.309.474L3.083,4.3,4.737.471A.337.337,0,0,0,4.428,0Z"/></svg>