<?xml version="1.0" encoding="UTF-8"?>
<svg width="4780px" height="4226px" viewBox="0 0 4780 4226" version="1.1" xmlns="http://www.w3.org/2000/svg" xmlns:xlink="http://www.w3.org/1999/xlink">
    <!-- Generator: Sketch 55.2 (78181) - https://sketchapp.com -->
    <title>Group 16</title>
    <desc>Created with Sketch.</desc>
    <g id="page-1" stroke="none" stroke-width="1" fill="none" fill-rule="evenodd">
        <g id="Group-16" transform="translate(2390.500000, 2113.000000) rotate(-35.000000) translate(-2390.500000, -2113.000000) translate(210.000000, 1061.000000)" fill="#EFEFEF">
            <rect id="Rectangle-Copy-61" x="0" y="112" width="4361" height="8"></rect>
            <rect id="Rectangle-Copy-211" x="0" y="640" width="4361" height="8"></rect>
            <rect id="Rectangle-Copy-204" x="0" y="96" width="4361" height="8"></rect>
            <rect id="Rectangle-Copy-212" x="0" y="624" width="4361" height="8"></rect>
            <rect id="Rectangle-Copy-205" x="0" y="80" width="4361" height="8"></rect>
            <rect id="Rectangle-Copy-213" x="0" y="608" width="4361" height="8"></rect>
            <rect id="Rectangle-Copy-206" x="0" y="64" width="4361" height="8"></rect>
            <rect id="Rectangle-Copy-214" x="0" y="592" width="4361" height="8"></rect>
            <rect id="Rectangle-Copy-207" x="0" y="48" width="4361" height="8"></rect>
            <rect id="Rectangle-Copy-215" x="0" y="576" width="4361" height="8"></rect>
            <rect id="Rectangle-Copy-208" x="0" y="32" width="4361" height="8"></rect>
            <rect id="Rectangle-Copy-216" x="0" y="560" width="4361" height="8"></rect>
            <rect id="Rectangle-Copy-209" x="0" y="16" width="4361" height="8"></rect>
            <rect id="Rectangle-Copy-217" x="0" y="544" width="4361" height="8"></rect>
            <rect id="Rectangle-Copy-210" x="0" y="0" width="4361" height="8"></rect>
            <rect id="Rectangle-Copy-218" x="0" y="528" width="4361" height="8"></rect>
            <rect id="Rectangle-Copy-179" x="0" y="128" width="4361" height="8"></rect>
            <rect id="Rectangle-Copy-219" x="0" y="656" width="4361" height="8"></rect>
            <rect id="Rectangle-Copy-180" x="0" y="144" width="4361" height="8"></rect>
            <rect id="Rectangle-Copy-220" x="0" y="672" width="4361" height="8"></rect>
            <rect id="Rectangle-Copy-181" x="0" y="160" width="4361" height="8"></rect>
            <rect id="Rectangle-Copy-221" x="0" y="688" width="4361" height="8"></rect>
            <rect id="Rectangle-Copy-182" x="0" y="176" width="4361" height="8"></rect>
            <rect id="Rectangle-Copy-222" x="0" y="704" width="4361" height="8"></rect>
            <rect id="Rectangle-Copy-183" x="0" y="192" width="4361" height="8"></rect>
            <rect id="Rectangle-Copy-223" x="0" y="720" width="4361" height="8"></rect>
            <rect id="Rectangle-Copy-184" x="0" y="208" width="4361" height="8"></rect>
            <rect id="Rectangle-Copy-224" x="0" y="736" width="4361" height="8"></rect>
            <rect id="Rectangle-Copy-185" x="0" y="224" width="4361" height="8"></rect>
            <rect id="Rectangle-Copy-225" x="0" y="752" width="4361" height="8"></rect>
            <rect id="Rectangle-Copy-186" x="0" y="240" width="4361" height="8"></rect>
            <rect id="Rectangle-Copy-226" x="0" y="768" width="4361" height="8"></rect>
            <rect id="Rectangle-Copy-187" x="0" y="256" width="4361" height="8"></rect>
            <rect id="Rectangle-Copy-227" x="0" y="784" width="4361" height="8"></rect>
            <rect id="Rectangle-Copy-188" x="0" y="272" width="4361" height="8"></rect>
            <rect id="Rectangle-Copy-228" x="0" y="800" width="4361" height="8"></rect>
            <rect id="Rectangle-Copy-189" x="0" y="288" width="4361" height="8"></rect>
            <rect id="Rectangle-Copy-229" x="0" y="816" width="4361" height="8"></rect>
            <rect id="Rectangle-Copy-190" x="0" y="304" width="4361" height="8"></rect>
            <rect id="Rectangle-Copy-230" x="0" y="832" width="4361" height="8"></rect>
            <rect id="Rectangle-Copy-191" x="0" y="320" width="4361" height="8"></rect>
            <rect id="Rectangle-Copy-231" x="0" y="848" width="4361" height="8"></rect>
            <rect id="Rectangle-Copy-192" x="0" y="336" width="4361" height="8"></rect>
            <rect id="Rectangle-Copy-232" x="0" y="864" width="4361" height="8"></rect>
            <rect id="Rectangle-Copy-193" x="0" y="352" width="4361" height="8"></rect>
            <rect id="Rectangle-Copy-233" x="0" y="880" width="4361" height="8"></rect>
            <rect id="Rectangle-Copy-194" x="0" y="368" width="4361" height="8"></rect>
            <rect id="Rectangle-Copy-234" x="0" y="896" width="4361" height="8"></rect>
            <rect id="Rectangle-Copy-195" x="0" y="384" width="4361" height="8"></rect>
            <rect id="Rectangle-Copy-235" x="0" y="912" width="4361" height="8"></rect>
            <rect id="Rectangle-Copy-196" x="0" y="400" width="4361" height="8"></rect>
            <rect id="Rectangle-Copy-236" x="0" y="928" width="4361" height="8"></rect>
            <rect id="Rectangle-Copy-197" x="0" y="416" width="4361" height="8"></rect>
            <rect id="Rectangle-Copy-237" x="0" y="944" width="4361" height="8"></rect>
            <rect id="Rectangle-Copy-198" x="0" y="432" width="4361" height="8"></rect>
            <rect id="Rectangle-Copy-238" x="0" y="960" width="4361" height="8"></rect>
            <rect id="Rectangle-Copy-199" x="0" y="448" width="4361" height="8"></rect>
            <rect id="Rectangle-Copy-239" x="0" y="976" width="4361" height="8"></rect>
            <rect id="Rectangle-Copy-200" x="0" y="464" width="4361" height="8"></rect>
            <rect id="Rectangle-Copy-240" x="0" y="992" width="4361" height="8"></rect>
            <rect id="Rectangle-Copy-201" x="0" y="480" width="4361" height="8"></rect>
            <rect id="Rectangle-Copy-241" x="0" y="1008" width="4361" height="8"></rect>
            <rect id="Rectangle-Copy-202" x="0" y="496" width="4361" height="8"></rect>
            <rect id="Rectangle-Copy-242" x="0" y="1024" width="4361" height="8"></rect>
            <rect id="Rectangle-Copy-203" x="0" y="512" width="4361" height="8"></rect>
            <rect id="Rectangle-Copy-243" x="0" y="1040" width="4361" height="8"></rect>
            <rect id="Rectangle-Copy-61" x="0" y="1168" width="4361" height="8"></rect>
            <rect id="Rectangle-Copy-211" x="0" y="1696" width="4361" height="8"></rect>
            <rect id="Rectangle-Copy-204" x="0" y="1152" width="4361" height="8"></rect>
            <rect id="Rectangle-Copy-212" x="0" y="1680" width="4361" height="8"></rect>
            <rect id="Rectangle-Copy-205" x="0" y="1136" width="4361" height="8"></rect>
            <rect id="Rectangle-Copy-213" x="0" y="1664" width="4361" height="8"></rect>
            <rect id="Rectangle-Copy-206" x="0" y="1120" width="4361" height="8"></rect>
            <rect id="Rectangle-Copy-214" x="0" y="1648" width="4361" height="8"></rect>
            <rect id="Rectangle-Copy-207" x="0" y="1104" width="4361" height="8"></rect>
            <rect id="Rectangle-Copy-215" x="0" y="1632" width="4361" height="8"></rect>
            <rect id="Rectangle-Copy-208" x="0" y="1088" width="4361" height="8"></rect>
            <rect id="Rectangle-Copy-216" x="0" y="1616" width="4361" height="8"></rect>
            <rect id="Rectangle-Copy-209" x="0" y="1072" width="4361" height="8"></rect>
            <rect id="Rectangle-Copy-217" x="0" y="1600" width="4361" height="8"></rect>
            <rect id="Rectangle-Copy-210" x="0" y="1056" width="4361" height="8"></rect>
            <rect id="Rectangle-Copy-218" x="0" y="1584" width="4361" height="8"></rect>
            <rect id="Rectangle-Copy-179" x="0" y="1184" width="4361" height="8"></rect>
            <rect id="Rectangle-Copy-219" x="0" y="1712" width="4361" height="8"></rect>
            <rect id="Rectangle-Copy-180" x="0" y="1200" width="4361" height="8"></rect>
            <rect id="Rectangle-Copy-220" x="0" y="1728" width="4361" height="8"></rect>
            <rect id="Rectangle-Copy-181" x="0" y="1216" width="4361" height="8"></rect>
            <rect id="Rectangle-Copy-221" x="0" y="1744" width="4361" height="8"></rect>
            <rect id="Rectangle-Copy-182" x="0" y="1232" width="4361" height="8"></rect>
            <rect id="Rectangle-Copy-222" x="0" y="1760" width="4361" height="8"></rect>
            <rect id="Rectangle-Copy-183" x="0" y="1248" width="4361" height="8"></rect>
            <rect id="Rectangle-Copy-223" x="0" y="1776" width="4361" height="8"></rect>
            <rect id="Rectangle-Copy-184" x="0" y="1264" width="4361" height="8"></rect>
            <rect id="Rectangle-Copy-224" x="0" y="1792" width="4361" height="8"></rect>
            <rect id="Rectangle-Copy-185" x="0" y="1280" width="4361" height="8"></rect>
            <rect id="Rectangle-Copy-225" x="0" y="1808" width="4361" height="8"></rect>
            <rect id="Rectangle-Copy-186" x="0" y="1296" width="4361" height="8"></rect>
            <rect id="Rectangle-Copy-226" x="0" y="1824" width="4361" height="8"></rect>
            <rect id="Rectangle-Copy-187" x="0" y="1312" width="4361" height="8"></rect>
            <rect id="Rectangle-Copy-227" x="0" y="1840" width="4361" height="8"></rect>
            <rect id="Rectangle-Copy-188" x="0" y="1328" width="4361" height="8"></rect>
            <rect id="Rectangle-Copy-228" x="0" y="1856" width="4361" height="8"></rect>
            <rect id="Rectangle-Copy-189" x="0" y="1344" width="4361" height="8"></rect>
            <rect id="Rectangle-Copy-229" x="0" y="1872" width="4361" height="8"></rect>
            <rect id="Rectangle-Copy-190" x="0" y="1360" width="4361" height="8"></rect>
            <rect id="Rectangle-Copy-230" x="0" y="1888" width="4361" height="8"></rect>
            <rect id="Rectangle-Copy-191" x="0" y="1376" width="4361" height="8"></rect>
            <rect id="Rectangle-Copy-231" x="0" y="1904" width="4361" height="8"></rect>
            <rect id="Rectangle-Copy-192" x="0" y="1392" width="4361" height="8"></rect>
            <rect id="Rectangle-Copy-232" x="0" y="1920" width="4361" height="8"></rect>
            <rect id="Rectangle-Copy-193" x="0" y="1408" width="4361" height="8"></rect>
            <rect id="Rectangle-Copy-233" x="0" y="1936" width="4361" height="8"></rect>
            <rect id="Rectangle-Copy-194" x="0" y="1424" width="4361" height="8"></rect>
            <rect id="Rectangle-Copy-234" x="0" y="1952" width="4361" height="8"></rect>
            <rect id="Rectangle-Copy-195" x="0" y="1440" width="4361" height="8"></rect>
            <rect id="Rectangle-Copy-235" x="0" y="1968" width="4361" height="8"></rect>
            <rect id="Rectangle-Copy-196" x="0" y="1456" width="4361" height="8"></rect>
            <rect id="Rectangle-Copy-236" x="0" y="1984" width="4361" height="8"></rect>
            <rect id="Rectangle-Copy-197" x="0" y="1472" width="4361" height="8"></rect>
            <rect id="Rectangle-Copy-237" x="0" y="2000" width="4361" height="8"></rect>
            <rect id="Rectangle-Copy-198" x="0" y="1488" width="4361" height="8"></rect>
            <rect id="Rectangle-Copy-238" x="0" y="2016" width="4361" height="8"></rect>
            <rect id="Rectangle-Copy-199" x="0" y="1504" width="4361" height="8"></rect>
            <rect id="Rectangle-Copy-239" x="0" y="2032" width="4361" height="8"></rect>
            <rect id="Rectangle-Copy-200" x="0" y="1520" width="4361" height="8"></rect>
            <rect id="Rectangle-Copy-240" x="0" y="2048" width="4361" height="8"></rect>
            <rect id="Rectangle-Copy-201" x="0" y="1536" width="4361" height="8"></rect>
            <rect id="Rectangle-Copy-241" x="0" y="2064" width="4361" height="8"></rect>
            <rect id="Rectangle-Copy-202" x="0" y="1552" width="4361" height="8"></rect>
            <rect id="Rectangle-Copy-242" x="0" y="2080" width="4361" height="8"></rect>
            <rect id="Rectangle-Copy-203" x="0" y="1568" width="4361" height="8"></rect>
            <rect id="Rectangle-Copy-243" x="0" y="2096" width="4361" height="8"></rect>
        </g>
    </g>
</svg>