<?xml version="1.0" encoding="UTF-8"?>
<svg width="501px" height="500px" viewBox="0 0 501 500" version="1.1" xmlns="http://www.w3.org/2000/svg" xmlns:xlink="http://www.w3.org/1999/xlink">
    <!-- Generator: Sketch 55.2 (78181) - https://sketchapp.com -->
    <title>Group 17 Copy 2</title>
    <desc>Created with Sketch.</desc>
    <defs>
        <rect id="path-1" x="0.653707282" y="0.00537285747" width="500" height="500" rx="250"></rect>
    </defs>
    <g id="page-1" stroke="none" stroke-width="1" fill="none" fill-rule="evenodd">
        <g id="Group-17-Copy-2">
            <mask id="mask-2" fill="white">
                <use xlink:href="#path-1"></use>
            </mask>
            <use id="Mask" fill="#FFFFFF" xlink:href="#path-1"></use>
            <g mask="url(#mask-2)">
                <g transform="translate(813.018191, 402.875418) rotate(35.000000) translate(-813.018191, -402.875418) translate(-208.981809, -519.124582)">
                    <g id="Group-16">
                        <rect id="Rectangle-Copy-211" fill="#66FFA6" x="0" y="560.857102" width="1021.81153" height="7.01071378"></rect>
                        <rect id="Rectangle-Copy-212" fill="#66FFA6" x="0" y="546.835675" width="1021.81153" height="7.01071378"></rect>
                        <rect id="Rectangle-Copy-213" fill="#66FFA6" x="0" y="532.814247" width="1021.81153" height="7.01071378"></rect>
                        <rect id="Rectangle-Copy-214" fill="#66FFA6" x="0" y="518.79282" width="1021.81153" height="7.01071378"></rect>
                        <rect id="Rectangle-Copy-215" fill="#66FFA6" x="0" y="504.771392" width="1021.81153" height="7.01071378"></rect>
                        <rect id="Rectangle-Copy-216" fill="#66FFA6" x="0" y="490.749964" width="1021.81153" height="7.01071378"></rect>
                        <rect id="Rectangle-Copy-217" fill="#66FFA6" x="0" y="476.728537" width="1021.81153" height="7.01071378"></rect>
                        <rect id="Rectangle-Copy-218" fill="#66FFA6" x="0" y="462.707109" width="1021.81153" height="7.01071378"></rect>
                        <rect id="Rectangle-Copy-219" fill="#66FFA6" x="0" y="574.87853" width="1021.81153" height="7.01071378"></rect>
                        <rect id="Rectangle-Copy-220" fill="#66FFA6" x="0" y="588.899957" width="1021.81153" height="7.01071378"></rect>
                        <rect id="Rectangle-Copy-221" fill="#66FFA6" x="0" y="602.921385" width="1021.81153" height="7.01071378"></rect>
                        <rect id="Rectangle-Copy-222" fill="#66FFA6" x="0" y="616.942812" width="1021.81153" height="7.01071378"></rect>
                        <rect id="Rectangle-Copy-223" fill="#66FFA6" x="0" y="630.96424" width="1021.81153" height="7.01071378"></rect>
                        <rect id="Rectangle-Copy-224" fill="#66FFA6" x="0" y="644.985668" width="1021.81153" height="7.01071378"></rect>
                        <rect id="Rectangle-Copy-225" fill="#66FFA6" x="0" y="659.007095" width="1021.81153" height="7.01071378"></rect>
                        <rect id="Rectangle-Copy-226" fill="#66FFA6" x="0" y="673.028523" width="1021.81153" height="7.01071378"></rect>
                        <rect id="Rectangle-Copy-227" fill="#66FFA6" x="0" y="687.04995" width="1021.81153" height="7.01071378"></rect>
                        <rect id="Rectangle-Copy-228" fill="#66FFA6" x="0" y="701.071378" width="1021.81153" height="7.01071378"></rect>
                        <rect id="Rectangle-Copy-229" fill="#66FFA6" x="0" y="715.092805" width="1021.81153" height="7.01071378"></rect>
                        <rect id="Rectangle-Copy-230" fill="#66FFA6" x="0" y="729.114233" width="1021.81153" height="7.01071378"></rect>
                        <rect id="Rectangle-Copy-231" fill="#66FFA6" x="0" y="743.135661" width="1021.81153" height="7.01071378"></rect>
                        <rect id="Rectangle-Copy-232" fill="#66FFA6" x="0" y="757.157088" width="1021.81153" height="7.01071378"></rect>
                        <rect id="Rectangle-Copy-233" fill="#66FFA6" x="0" y="771.178516" width="1021.81153" height="7.01071378"></rect>
                        <rect id="Rectangle-Copy-234" fill="#66FFA6" x="0" y="785.199943" width="1021.81153" height="7.01071378"></rect>
                        <rect id="Rectangle-Copy-235" fill="#66FFA6" x="0" y="799.221371" width="1021.81153" height="7.01071378"></rect>
                        <rect id="Rectangle-Copy-236" fill="#66FFA6" x="0" y="813.242798" width="1021.81153" height="7.01071378"></rect>
                        <rect id="Rectangle-Copy-237" fill="#66FFA6" x="0" y="827.264226" width="1021.81153" height="7.01071378"></rect>
                        <rect id="Rectangle-Copy-238" fill="#66FFA6" x="0" y="841.285653" width="1021.81153" height="7.01071378"></rect>
                        <rect id="Rectangle-Copy-239" fill="#66FFA6" x="0" y="855.307081" width="1021.81153" height="7.01071378"></rect>
                        <rect id="Rectangle-Copy-240" fill="#66FFA6" x="0" y="869.328509" width="1021.81153" height="7.01071378"></rect>
                        <rect id="Rectangle-Copy-241" fill="#66FFA6" x="0" y="883.349936" width="1021.81153" height="7.01071378"></rect>
                        <rect id="Rectangle-Copy-202" fill="#66FFA6" x="0" y="434.664254" width="1021.81153" height="7.01071378"></rect>
                        <rect id="Rectangle-Copy-242" fill="#66FFA6" x="0" y="897.371364" width="1021.81153" height="7.01071378"></rect>
                        <rect id="Rectangle-Copy-203" fill="#66FFA6" x="0" y="448.685682" width="1021.81153" height="7.01071378"></rect>
                        <rect id="Rectangle-Copy-243" fill="#66FFA6" x="0" y="911.392791" width="1021.81153" height="7.01071378"></rect>
                        <rect id="Rectangle-Copy-61" fill="#66FFA6" x="0" y="1023.56421" width="1021.81153" height="7.01071378"></rect>
                        <rect id="Rectangle-Copy-211" fill="#66FFA6" x="0" y="1486.27132" width="1021.81153" height="7.01071378"></rect>
                        <rect id="Rectangle-Copy-204" fill="#66FFA6" x="0" y="1009.54278" width="1021.81153" height="7.01071378"></rect>
                        <rect id="Rectangle-Copy-212" fill="#66FFA6" x="0" y="1472.24989" width="1021.81153" height="7.01071378"></rect>
                        <rect id="Rectangle-Copy-205" fill="#66FFA6" x="0" y="995.521357" width="1021.81153" height="7.01071378"></rect>
                        <rect id="Rectangle-Copy-213" fill="#66FFA6" x="0" y="1458.22847" width="1021.81153" height="7.01071378"></rect>
                        <rect id="Rectangle-Copy-206" fill="#66FFA6" x="0" y="981.499929" width="1021.81153" height="7.01071378"></rect>
                        <rect id="Rectangle-Copy-214" fill="#66FFA6" x="0" y="1444.20704" width="1021.81153" height="7.01071378"></rect>
                        <rect id="Rectangle-Copy-207" fill="#66FFA6" x="0" y="967.478501" width="1021.81153" height="7.01071378"></rect>
                        <rect id="Rectangle-Copy-215" fill="#66FFA6" x="0" y="1430.18561" width="1021.81153" height="7.01071378"></rect>
                        <rect id="Rectangle-Copy-208" fill="#66FFA6" x="0" y="953.457074" width="1021.81153" height="7.01071378"></rect>
                        <rect id="Rectangle-Copy-216" fill="#66FFA6" x="0" y="1416.16418" width="1021.81153" height="7.01071378"></rect>
                        <rect id="Rectangle-Copy-209" fill="#66FFA6" x="0" y="939.435646" width="1021.81153" height="7.01071378"></rect>
                        <rect id="Rectangle-Copy-217" fill="#66FFA6" x="0" y="1402.14276" width="1021.81153" height="7.01071378"></rect>
                        <rect id="Rectangle-Copy-210" fill="#66FFA6" x="0" y="925.414219" width="1021.81153" height="7.01071378"></rect>
                        <rect id="Rectangle-Copy-218" fill="#66FFA6" x="0" y="1388.12133" width="1021.81153" height="7.01071378"></rect>
                        <rect id="Rectangle-Copy-179" fill="#66FFA6" x="0" y="1037.58564" width="1021.81153" height="7.01071378"></rect>
                        <rect id="Rectangle-Copy-219" fill="#66FFA6" x="0" y="1500.29275" width="1021.81153" height="7.01071378"></rect>
                        <rect id="Rectangle-Copy-180" fill="#66FFA6" x="0" y="1051.60707" width="1021.81153" height="7.01071378"></rect>
                        <rect id="Rectangle-Copy-220" fill="#66FFA6" x="0" y="1514.31418" width="1021.81153" height="7.01071378"></rect>
                        <rect id="Rectangle-Copy-181" fill="#66FFA6" x="0" y="1065.62849" width="1021.81153" height="7.01071378"></rect>
                        <rect id="Rectangle-Copy-221" fill="#66FFA6" x="0" y="1528.3356" width="1021.81153" height="7.01071378"></rect>
                        <rect id="Rectangle-Copy-182" fill="#66FFA6" x="0" y="1079.64992" width="1021.81153" height="7.01071378"></rect>
                        <rect id="Rectangle-Copy-222" fill="#66FFA6" x="0" y="1542.35703" width="1021.81153" height="7.01071378"></rect>
                        <rect id="Rectangle-Copy-183" fill="#66FFA6" x="0" y="1093.67135" width="1021.81153" height="7.01071378"></rect>
                        <rect id="Rectangle-Copy-223" fill="#66FFA6" x="0" y="1556.37846" width="1021.81153" height="7.01071378"></rect>
                        <rect id="Rectangle-Copy-184" fill="#66FFA6" x="0" y="1107.69278" width="1021.81153" height="7.01071378"></rect>
                        <rect id="Rectangle-Copy-224" fill="#66FFA6" x="0" y="1570.39989" width="1021.81153" height="7.01071378"></rect>
                        <rect id="Rectangle-Copy-185" fill="#66FFA6" x="0" y="1121.7142" width="1021.81153" height="7.01071378"></rect>
                        <rect id="Rectangle-Copy-225" fill="#66FFA6" x="0" y="1584.42131" width="1021.81153" height="7.01071378"></rect>
                        <rect id="Rectangle-Copy-186" fill="#66FFA6" x="0" y="1135.73563" width="1021.81153" height="7.01071378"></rect>
                        <rect id="Rectangle-Copy-226" fill="#66FFA6" x="0" y="1598.44274" width="1021.81153" height="7.01071378"></rect>
                        <rect id="Rectangle-Copy-187" fill="#66FFA6" x="0" y="1149.75706" width="1021.81153" height="7.01071378"></rect>
                        <rect id="Rectangle-Copy-227" fill="#66FFA6" x="0" y="1612.46417" width="1021.81153" height="7.01071378"></rect>
                        <rect id="Rectangle-Copy-188" fill="#66FFA6" x="0" y="1163.77849" width="1021.81153" height="7.01071378"></rect>
                        <rect id="Rectangle-Copy-228" fill="#66FFA6" x="0" y="1626.4856" width="1021.81153" height="7.01071378"></rect>
                        <rect id="Rectangle-Copy-189" fill="#66FFA6" x="0" y="1177.79991" width="1021.81153" height="7.01071378"></rect>
                        <rect id="Rectangle-Copy-229" fill="#66FFA6" x="0" y="1640.50702" width="1021.81153" height="7.01071378"></rect>
                        <rect id="Rectangle-Copy-190" fill="#66FFA6" x="0" y="1191.82134" width="1021.81153" height="7.01071378"></rect>
                        <rect id="Rectangle-Copy-230" fill="#66FFA6" x="0" y="1654.52845" width="1021.81153" height="7.01071378"></rect>
                        <rect id="Rectangle-Copy-191" fill="#66FFA6" x="0" y="1205.84277" width="1021.81153" height="7.01071378"></rect>
                        <rect id="Rectangle-Copy-231" fill="#66FFA6" x="0" y="1668.54988" width="1021.81153" height="7.01071378"></rect>
                        <rect id="Rectangle-Copy-192" fill="#66FFA6" x="0" y="1219.8642" width="1021.81153" height="7.01071378"></rect>
                        <rect id="Rectangle-Copy-232" fill="#66FFA6" x="0" y="1682.57131" width="1021.81153" height="7.01071378"></rect>
                        <rect id="Rectangle-Copy-193" fill="#66FFA6" x="0" y="1233.88562" width="1021.81153" height="7.01071378"></rect>
                        <rect id="Rectangle-Copy-233" fill="#66FFA6" x="0" y="1696.59273" width="1021.81153" height="7.01071378"></rect>
                        <rect id="Rectangle-Copy-194" fill="#66FFA6" x="0" y="1247.90705" width="1021.81153" height="7.01071378"></rect>
                        <rect id="Rectangle-Copy-234" fill="#66FFA6" x="0" y="1710.61416" width="1021.81153" height="7.01071378"></rect>
                        <rect id="Rectangle-Copy-195" fill="#66FFA6" x="0" y="1261.92848" width="1021.81153" height="7.01071378"></rect>
                        <rect id="Rectangle-Copy-235" fill="#66FFA6" x="0" y="1724.63559" width="1021.81153" height="7.01071378"></rect>
                        <rect id="Rectangle-Copy-196" fill="#66FFA6" x="0" y="1275.94991" width="1021.81153" height="7.01071378"></rect>
                        <rect id="Rectangle-Copy-236" fill="#66FFA6" x="0" y="1738.65702" width="1021.81153" height="7.01071378"></rect>
                        <rect id="Rectangle-Copy-197" fill="#66FFA6" x="0" y="1289.97134" width="1021.81153" height="7.01071378"></rect>
                        <rect id="Rectangle-Copy-237" fill="#66FFA6" x="0" y="1752.67844" width="1021.81153" height="7.01071378"></rect>
                        <rect id="Rectangle-Copy-198" fill="#66FFA6" x="0" y="1303.99276" width="1021.81153" height="7.01071378"></rect>
                        <rect id="Rectangle-Copy-199" fill="#66FFA6" x="0" y="1318.01419" width="1021.81153" height="7.01071378"></rect>
                        <rect id="Rectangle-Copy-200" fill="#66FFA6" x="0" y="1332.03562" width="1021.81153" height="7.01071378"></rect>
                        <rect id="Rectangle-Copy-201" fill="#66FFA6" x="0" y="1346.05705" width="1021.81153" height="7.01071378"></rect>
                        <rect id="Rectangle-Copy-202" fill="#66FFA6" x="0" y="1360.07847" width="1021.81153" height="7.01071378"></rect>
                        <rect id="Rectangle-Copy-203" fill="#66FFA6" x="0" y="1374.0999" width="1021.81153" height="7.01071378"></rect>
                    </g>
                    <g id="Group-16-Copy" transform="translate(1021.811533, 0.000000)"></g>
                </g>
            </g>
        </g>
    </g>
</svg>