<?xml version="1.0" encoding="utf-8"?>
<!-- Generator: Adobe Illustrator 21.1.0, SVG Export Plug-In . SVG Version: 6.00 Build 0)  -->
<svg version="1.1" id="Layer_1" xmlns="http://www.w3.org/2000/svg" xmlns:xlink="http://www.w3.org/1999/xlink" x="0px" y="0px"
	 viewBox="0 0 414 896" style="enable-background:new 0 0 414 896;" xml:space="preserve">
<style type="text/css">
	.st0{fill:#ffffff;}
	.st1{fill:#ffffff;}
</style>
<g>
	<polygon class="st0" points="0.5,161.7 0.5,161.7 0,161 0,162 0.5,161.7 	"/>
	<polygon class="st0" points="9.6,174.8 9.6,174.8 9.6,174.8 0,181.6 0,201.1 18.8,187.9 	"/>
	<polygon class="st0" points="37.2,214.1 37.2,214.1 28,201 0,220.6 0,240.2 37.2,214.1 	"/>
	<polygon class="st0" points="47.5,228.9 47.5,228.9 46.4,227.2 0,259.7 0,279.2 55.5,240.3 	"/>
	<polygon class="st0" points="73.9,266.6 73.9,266.6 65.9,255.1 65.9,255.1 64.7,253.5 0,298.8 0,318.3 73.9,266.6 	"/>
	<polygon class="st0" points="83.1,279.7 83.1,279.7 83.1,279.7 0,337.8 0,357.4 92.2,292.8 	"/>
	<polygon class="st0" points="101.4,305.9 101.4,305.9 101.4,305.9 0,376.9 0,396.4 110.6,319 	"/>
	<polygon class="st0" points="119.8,332.1 0,416 0,435.5 128.9,345.2 	"/>
	<polygon class="st0" points="147.3,371.4 147.3,371.4 139.3,359.9 139.3,359.9 138.9,359.5 138.1,358.3 138.1,358.3 138.1,358.3 
		0,455 0,474.6 147.3,371.4 	"/>
	<polygon class="st0" points="165.7,397.6 165.7,397.6 157.6,386.2 157.6,386.2 156.8,385 156.5,384.5 0,494.1 0,513.6 165.7,397.6 
			"/>
	<polygon class="st0" points="176,412.4 176,412.4 174.8,410.7 0,533.1 0,552.7 184,423.8 	"/>
	<polygon class="st0" points="202.4,450 202.4,450 194.3,438.6 194.3,438.6 193.2,436.9 0,572.2 0,591.7 202.4,450 	"/>
	<polygon class="st0" points="275.8,554.9 275.8,554.9 267.8,543.4 0,730.9 0,748 275.8,554.9 	"/>
	<polygon class="st0" points="249.4,517.2 0,691.8 0,711.4 258.6,530.3 	"/>
	<polygon class="st0" points="240.2,504.1 240.2,504.1 231,491 0,652.8 0,672.3 240.2,504.1 	"/>
	<polygon class="st0" points="221.5,477.4 220.7,476.3 220.7,476.3 212.7,464.8 0,613.7 0,633.3 221.9,477.9 	"/>
	<polygon class="st0" points="285,568 0,767.5 0,787.1 294.1,581.1 	"/>
	<polygon class="st0" points="312.5,607.3 312.5,607.3 304.5,595.9 304.5,595.9 303.3,594.2 0,806.6 0,826.1 312.5,607.3 	"/>
	<polygon class="st0" points="330.8,633.5 330.8,633.5 322.8,622.1 322.8,622.1 321.7,620.4 0,845.7 0,865.2 330.8,633.5 	"/>
	<polygon class="st0" points="341.2,648.3 341.2,648.3 340,646.6 0,884.7 0,896 11.8,896 349.2,659.8 	"/>
	<polygon class="st0" points="367.6,686 367.6,686 358.4,672.9 39.7,896 67.6,896 367.6,686 	"/>
	<polygon class="st0" points="377.1,699.6 376.7,699.1 95.5,896 123.4,896 385.9,712.2 	"/>
	<polygon class="st0" points="404.3,738.4 395.1,725.3 395.1,725.3 395.1,725.3 151.3,896 179.2,896 	"/>
	<polygon class="st0" points="207.1,896 235,896 414,770.6 414,752.3 413.4,751.5 	"/>
	<polygon class="st0" points="290.8,896 414,809.7 414,790.2 262.9,896 	"/>
	<polygon class="st0" points="346.5,896 414,848.8 414,829.2 318.6,896 	"/>
	<polygon class="st0" points="402.3,896 414,887.8 414,868.3 374.4,896 	"/>
	<polygon class="st1" points="95.4,0 0,66.8 0,86.3 123.3,0 	"/>
	<polygon class="st1" points="39.6,0 0,27.7 0,47.3 67.5,0 	"/>
	<polygon class="st1" points="0,0 0,8.2 11.7,0 	"/>
	<polygon class="st1" points="147.7,0 0,103.4 0,123 175.6,0 	"/>
	<polygon class="st1" points="231.4,0 203.5,0 0,142.5 0,161 0.5,161.7 	"/>
	<polygon class="st1" points="9.6,174.8 9.6,174.8 18.8,187.9 18.8,187.9 287.2,0 259.3,0 	"/>
	<polygon class="st1" points="28,201 28,201 28,201 37.2,214.1 343,0 315.1,0 	"/>
	<polygon class="st1" points="46.4,227.2 47.5,228.9 55.5,240.3 55.5,240.3 398.8,0 370.9,0 	"/>
	<polygon class="st1" points="75,268.2 75,268.2 74.2,267 	"/>
	<polygon class="st1" points="64.7,253.5 65.9,255.1 73.9,266.6 414,28.4 414,8.9 	"/>
	<polygon class="st1" points="83.1,279.7 83.1,279.7 92.2,292.8 93.4,294.4 93.4,294.4 92.2,292.8 414,67.5 414,47.9 	"/>
	<polygon class="st1" points="101.4,305.9 101.4,305.9 110.6,319 111.7,320.6 111.7,320.6 110.6,319 414,106.5 414,87 	"/>
	<polygon class="st1" points="119.8,332.1 119.8,332.1 119.8,332.1 128.9,345.2 130.1,346.8 130.1,346.8 128.9,345.2 414,145.6 
		414,126.1 	"/>
	<polygon class="st1" points="138.9,359.5 139.3,359.9 139.3,359.9 	"/>
	<polygon class="st1" points="138.1,358.3 138.1,358.3 138.9,359.5 139.3,359.9 147.3,371.4 414,184.7 414,165.1 	"/>
	<polygon class="st1" points="157.6,386.2 157.6,386.2 156.8,385 	"/>
	<polygon class="st1" points="156.5,384.5 156.5,384.5 156.5,384.5 156.8,385 157.6,386.2 165.7,397.6 414,223.7 414,204.2 	"/>
	<polygon class="st1" points="174.8,410.7 176,412.4 184,423.8 184,423.8 414,262.8 414,243.3 	"/>
	<polygon class="st1" points="193.2,436.9 194.3,438.6 202.4,450 414,301.9 414,282.3 	"/>
	<polygon class="st1" points="267.8,543.4 267.8,543.4 275.8,554.9 414,458.1 414,441 	"/>
	<polygon class="st1" points="266.6,541.8 267.4,543 266.6,541.8 	"/>
	<polygon class="st1" points="249.4,517.2 248.3,515.6 248.2,515.6 249.4,517.2 258.6,530.3 258.6,530.3 258.6,530.3 414,421.5 
		414,402 	"/>
	<polygon class="st1" points="231,491 229.9,489.4 229.9,489.4 231,491 240.2,504.1 240.2,504.1 414,382.4 414,362.9 	"/>
	<polygon class="st1" points="220.7,476.3 221.5,477.4 220.7,476.3 	"/>
	<polygon class="st1" points="212.7,464.8 211.8,463.6 212.7,464.8 220.7,476.3 221.5,477.4 221.9,477.9 221.9,477.9 221.9,477.9 
		414,343.4 414,323.8 	"/>
	<polygon class="st1" points="285,568 285,568 285,568 294.1,581.1 294.1,581.1 414,497.2 414,477.7 	"/>
	<polygon class="st1" points="303.3,594.2 304.5,595.9 312.5,607.3 414,536.2 414,516.7 	"/>
	<polygon class="st1" points="321.7,620.4 322.8,622.1 330.8,633.5 414,575.3 414,555.8 	"/>
	<polygon class="st1" points="340,646.6 341.2,648.3 349.2,659.8 349.2,659.8 414,614.4 414,594.8 	"/>
	<polygon class="st1" points="358.4,672.9 358.4,672.9 358.4,672.9 367.6,686 414,653.4 414,633.9 	"/>
	<polygon class="st1" points="376.7,699.1 377.1,699.6 385.9,712.2 387.1,713.8 387.1,713.8 385.9,712.2 414,692.5 414,673 	"/>
	<polygon class="st1" points="395.1,725.3 395.1,725.3 404.3,738.4 405.4,740 405.4,740 404.3,738.4 414,731.6 414,712 	"/>
	<polygon class="st1" points="413.4,751.5 413.4,751.5 414,752.3 414,751.1 413.4,751.5 	"/>
</g>
</svg>
