<svg id="Layer_1" data-name="Layer 1" xmlns="http://www.w3.org/2000/svg" viewBox="0 0 52 52"><defs><style>.cls-1{fill:#fff;}.cls-2{fill:#66ffa6;}</style></defs><title>social-media-icons</title><path class="cls-1" d="M26,47A21,21,0,1,1,47,26,21,21,0,0,1,26,47Z"/><path class="cls-2" d="M26,10A16,16,0,1,1,10,26,16,16,0,0,1,26,10M26,0A26,26,0,1,0,52,26,26,26,0,0,0,26,0Z"/><rect x="20.67" y="23.33" width="2.67" height="8"/><ellipse cx="22" cy="20.67" rx="1.47" ry="1.48"/><path d="M32.67,31.33H30V27.52c0-2.51-2.67-2.3-2.67,0v3.81H24.67v-8h2.67v1.46c1.16-2.15,5.33-2.31,5.33,2.06Z"/></svg>