<svg id="Layer_1" data-name="Layer 1" xmlns="http://www.w3.org/2000/svg" viewBox="0 0 52 52"><defs><style>.cls-1{fill:#fff;}.cls-2{fill:#66ffa6;}</style></defs><title>social-media-logo-github</title><path class="cls-1" d="M26,47A21,21,0,1,1,47,26,21,21,0,0,1,26,47Z"/><path class="cls-2" d="M26,10A16,16,0,1,1,10,26,16,16,0,0,1,26,10M26,0A26,26,0,1,0,52,26,26,26,0,0,0,26,0Z"/><path d="M30,40.46V36.07a3.82,3.82,0,0,0-1.1-3c3.56-.4,7.31-1.75,7.31-7.89a6.18,6.18,0,0,0-1.65-4.29,5.75,5.75,0,0,0-.16-4.23S33,16.25,30,18.32a15.16,15.16,0,0,0-8,0c-3.06-2.07-4.4-1.64-4.4-1.64a5.76,5.76,0,0,0-.16,4.23,6.19,6.19,0,0,0-1.65,4.29c0,6.13,3.74,7.5,7.29,7.91a3.39,3.39,0,0,0-1,2.14,3.41,3.41,0,0,1-4.66-1.33,3.36,3.36,0,0,0-2.45-1.65s-1.56,0-.11,1a4.24,4.24,0,0,1,1.78,2.34s.93,2.86,5.38,1.89v3a.75.75,0,0,1-.86.79,16,16,0,0,0,9.79,0A.75.75,0,0,1,30,40.46Z"/></svg>