<svg id="Layer_1" data-name="Layer 1" xmlns="http://www.w3.org/2000/svg" viewBox="0 0 52 52"><defs><style>.cls-1{fill:#fff;}.cls-2{fill:#66ffa6;}</style></defs><title>social-media-icons</title><path class="cls-1" d="M26,47A21,21,0,1,1,47,26,21,21,0,0,1,26,47Z"/><path class="cls-2" d="M26,10A16,16,0,1,1,10,26,16,16,0,0,1,26,10M26,0A26,26,0,1,0,52,26,26,26,0,0,0,26,0Z"/><path d="M34.09,22.86a10.89,10.89,0,0,1-16.75,9.67A7.7,7.7,0,0,0,23,30.95a3.84,3.84,0,0,1-3.58-2.66,3.84,3.84,0,0,0,1.73-.07,3.84,3.84,0,0,1-3.07-3.8,3.82,3.82,0,0,0,1.73.48,3.84,3.84,0,0,1-1.19-5.11,10.87,10.87,0,0,0,7.89,4,3.83,3.83,0,0,1,6.53-3.49,7.64,7.64,0,0,0,2.43-.93,3.85,3.85,0,0,1-1.68,2.12,7.64,7.64,0,0,0,2.2-.6,7.69,7.69,0,0,1-1.91,2Z"/></svg>