<?xml version="1.0" encoding="UTF-8"?>
<svg width="105px" height="56px" viewBox="0 0 105 56" version="1.1" xmlns="http://www.w3.org/2000/svg" xmlns:xlink="http://www.w3.org/1999/xlink">
    <!-- Generator: Sketch 55.2 (78181) - https://sketchapp.com -->
    <title>On Dark Background Copy 5</title>
    <desc>Created with Sketch.</desc>
    <g id="🚧-main-page" stroke="none" stroke-width="1" fill="none" fill-rule="evenodd">
        <g id="Artboard-Copy-16" transform="translate(-465.000000, -80.000000)" fill="#164050">
            <g id="On-Dark-Background-Copy-5" transform="translate(465.000000, 80.000000)">
                <path d="M29.9389076,21.8055682 L31.2116618,30.7860606 L28.6661533,30.7860606 L29.9389076,21.8055682 Z M28.1341519,34.1309676 L31.721322,34.1309676 L32.5249096,39.3665046 L36.1379118,39.3665046 L32.3203473,16.5881835 L27.5937724,16.5881835 L23.721751,39.3665046 L27.2991469,39.3665046 L28.1341519,34.1309676 Z" id="Fill-2"></path>
                <path d="M43.9545637,39.65736 C45.4451453,39.65736 46.724183,39.1302457 47.7902805,38.076017 C48.8563779,37.0210902 49.3904739,35.7371653 49.3904739,34.2214498 L49.3904739,31.0406114 L45.8270414,31.0406114 L45.8270414,34.1851452 C45.8270414,34.73111 45.6329516,35.1946913 45.2454702,35.5758893 C44.8572906,35.9577853 44.3909166,36.1490825 43.84565,36.1490825 C43.3003834,36.1490825 42.836802,35.9577853 42.4549059,35.5758893 C42.0730098,35.1946913 41.8824109,34.73111 41.8824109,34.1851452 L41.8824109,21.7145276 C41.8824109,21.1692609 42.0730098,20.7028869 42.4549059,20.3147074 C42.836802,19.927226 43.3003834,19.7331362 43.84565,19.7331362 C44.3909166,19.7331362 44.8572906,19.927226 45.2454702,20.3147074 C45.6329516,20.7028869 45.8270414,21.1692609 45.8270414,21.7145276 L45.8270414,24.387102 L49.3904739,24.387102 L49.3904739,21.7871367 C49.3904739,20.2846863 48.8626614,19.0000633 47.8084327,17.9332676 C46.7542041,16.8671701 45.469581,16.3337723 43.9545637,16.3337723 C42.4514151,16.3337723 41.1674902,16.8636793 40.1006946,17.9241915 C39.033899,18.9847036 38.5011993,20.2728175 38.5011993,21.7871367 L38.5011993,34.2214498 C38.5011993,35.7245983 39.0311063,37.0064287 40.0916185,38.0669409 C41.1521306,39.127453 42.4395463,39.65736 43.9545637,39.65736 L43.9545637,39.65736 Z" id="Fill-3"></path>
                <polygon id="Fill-5" points="55.6433765 25.0777265 58.9701312 39.366365 61.7334671 39.366365 64.7146303 25.0414219 64.7146303 39.366365 68.1502987 39.366365 68.1502987 16.5698916 63.4139495 16.5698916 60.3399304 32.9460425 57.1381471 16.5698916 52.2077081 16.5698916 52.2077081 39.366365 55.6433765 39.366365"></polygon>
                <polygon id="Fill-7" points="81.0029521 35.9124745 74.6580314 35.9124745 74.6580314 29.6953179 79.2938449 29.6953179 79.2938449 26.2414972 74.6580314 26.2414972 74.6580314 20.0236425 81.0029521 20.0236425 81.0029521 16.5698218 71.222363 16.5698218 71.222363 39.3662952 81.0029521 39.3662952"></polygon>
                <path d="M4.05563867,52.4719634 L100.669064,52.4719634 L100.669064,3.51944819 L4.05563867,3.51944819 L4.05563867,52.4719634 Z M0.53619048,55.9914116 L104.188513,55.9914116 L104.188513,-4.08562073e-14 L0.53619048,-4.08562073e-14 L0.53619048,55.9914116 Z" id="Fill-9"></path>
            </g>
        </g>
    </g>
</svg>